<?xml version="1.0" encoding="UTF-8"?>
<!DOCTYPE svg PUBLIC "-//W3C//DTD SVG 1.1//EN" "http://www.w3.org/Graphics/SVG/1.1/DTD/svg11.dtd">
<svg xmlns="http://www.w3.org/2000/svg" version="1.1" width="764px" height="257px" style="shape-rendering:geometricPrecision; text-rendering:geometricPrecision; image-rendering:optimizeQuality; fill-rule:evenodd; clip-rule:evenodd" xmlns:xlink="http://www.w3.org/1999/xlink">
<g><path style="opacity:0.02" fill="#d3d3d4" d="M 142.5,1.5 C 147.414,1.36182 152.081,2.02849 156.5,3.5C 151.609,3.46812 146.943,2.80146 142.5,1.5 Z"/></g>
<g><path style="opacity:1" fill="#151212" d="M 142.5,1.5 C 146.943,2.80146 151.609,3.46812 156.5,3.5C 159.219,4.91301 162.219,5.57968 165.5,5.5C 170.921,6.19589 175.921,7.86256 180.5,10.5C 181.514,11.6737 182.847,12.3404 184.5,12.5C 185.492,12.3284 186.158,12.6618 186.5,13.5C 188.181,15.0075 190.181,16.0075 192.5,16.5C 194.153,16.6596 195.486,17.3263 196.5,18.5C 196.877,20.8241 197.877,21.4908 199.5,20.5C 200.492,20.3284 201.158,20.6618 201.5,21.5C 202.035,23.4456 203.368,24.4456 205.5,24.5C 205.833,25.5 206.5,26.1667 207.5,26.5C 208.598,27.6009 208.765,28.9343 208,30.5C 204.298,34.3705 200.464,38.0371 196.5,41.5C 195.5,41.8333 194.833,42.5 194.5,43.5C 192.167,46.5 189.5,49.1667 186.5,51.5C 185.5,51.8333 184.833,52.5 184.5,53.5C 174.833,63.8333 164.833,73.8333 154.5,83.5C 153.5,83.8333 152.833,84.5 152.5,85.5C 142.833,95.8333 132.833,105.833 122.5,115.5C 121.5,115.833 120.833,116.5 120.5,117.5C 118.167,120.5 115.5,123.167 112.5,125.5C 111.427,126.251 111.26,127.251 112,128.5C 115.098,132.107 118.598,135.107 122.5,137.5C 122.369,138.239 122.536,138.906 123,139.5C 133.066,150.069 143.566,160.069 154.5,169.5C 156.167,173.167 158.833,175.833 162.5,177.5C 170.167,184.5 177.5,191.833 184.5,199.5C 184.833,200.5 185.5,201.167 186.5,201.5C 187.167,202.833 188.167,203.833 189.5,204.5C 195.167,209.5 200.5,214.833 205.5,220.5C 206.146,222.156 206.813,223.823 207.5,225.5C 207.248,227.073 206.582,228.406 205.5,229.5C 203.973,229.427 202.973,230.094 202.5,231.5C 198.827,233 195.494,235 192.5,237.5C 190.819,239.008 188.819,240.008 186.5,240.5C 164.118,249.841 140.784,253.508 116.5,251.5C 114.265,251.795 112.265,251.461 110.5,250.5C 104.415,248.256 98.0817,246.589 91.5,245.5C 90.2196,244.069 88.5529,243.402 86.5,243.5C 84.5739,241.707 82.2406,240.707 79.5,240.5C 77.847,240.34 76.5137,239.674 75.5,238.5C 74.4863,237.326 73.153,236.66 71.5,236.5C 69.178,234.336 66.5113,232.669 63.5,231.5C 63.0269,230.094 62.0269,229.427 60.5,229.5C 59.7377,227.738 58.4044,226.738 56.5,226.5C 55.4154,224.413 53.7488,223.08 51.5,222.5C 46.8333,217.167 41.8333,212.167 36.5,207.5C 34.5419,204.208 32.2085,201.208 29.5,198.5C 29.573,196.973 28.9063,195.973 27.5,195.5C 27.2503,193.326 26.2503,191.659 24.5,190.5C 10.4203,163.842 5.08702,135.508 8.5,105.5C 8.42032,102.219 9.08699,99.2186 10.5,96.5C 13.4708,90.921 15.4708,84.921 16.5,78.5C 16.3284,77.5084 16.6618,76.8417 17.5,76.5C 20.0078,72.8178 22.0078,68.8178 23.5,64.5C 25.664,62.178 27.3307,59.5113 28.5,56.5C 33.1899,50.8142 37.8565,45.1475 42.5,39.5C 47.1256,36.5422 51.1256,32.8755 54.5,28.5C 59.1141,25.8827 63.4474,22.8827 67.5,19.5C 69.153,19.3404 70.4863,18.6737 71.5,17.5C 73.0269,17.573 74.0269,16.9063 74.5,15.5C 74.8417,14.6618 75.5084,14.3284 76.5,14.5C 78.698,14.8799 80.3646,14.2132 81.5,12.5C 83.153,12.3404 84.4863,11.6737 85.5,10.5C 87.8902,8.98023 90.5568,7.98023 93.5,7.5C 96.2282,7.82943 98.5615,7.16276 100.5,5.5C 105.444,5.24624 110.111,4.24624 114.5,2.5C 123.786,0.631545 133.119,0.298211 142.5,1.5 Z M 154.5,13.5 C 155.209,12.596 156.209,12.2627 157.5,12.5C 158.167,12.5 158.833,12.5 159.5,12.5C 161.214,13.7384 163.214,14.405 165.5,14.5C 167.701,15.5664 170.035,16.233 172.5,16.5C 173.93,17.5375 175.597,18.2041 177.5,18.5C 179.649,19.7362 181.982,20.7362 184.5,21.5C 185.287,23.1042 186.62,23.7709 188.5,23.5C 188.973,24.9063 189.973,25.573 191.5,25.5C 193.319,26.5845 194.985,27.9178 196.5,29.5C 193.478,32.8533 190.478,36.1866 187.5,39.5C 186.167,39.5 185.5,40.1667 185.5,41.5C 184.833,41.5 184.5,41.8333 184.5,42.5C 183.167,42.5 182.5,43.1667 182.5,44.5C 173.167,53.1667 164.167,62.1667 155.5,71.5C 154.167,71.5 153.5,72.1667 153.5,73.5C 152.833,73.5 152.5,73.8333 152.5,74.5C 151.167,74.5 150.5,75.1667 150.5,76.5C 146.167,80.1667 142.167,84.1667 138.5,88.5C 136.167,88.8333 134.833,90.1667 134.5,92.5C 133.167,92.5 132.5,93.1667 132.5,94.5C 128.833,96.1667 126.167,98.8333 124.5,102.5C 123.833,102.5 123.5,102.833 123.5,103.5C 120.833,104.167 119.167,105.833 118.5,108.5C 111.329,113.504 105.329,119.671 100.5,127C 101.066,127.995 101.733,128.828 102.5,129.5C 108.5,136.167 114.833,142.5 121.5,148.5C 121.5,149.833 122.167,150.5 123.5,150.5C 131.833,159.5 140.5,168.167 149.5,176.5C 150.031,178.544 151.198,180.211 153,181.5C 153.167,182.333 153.333,183.167 153.5,184C 153.316,185.376 152.649,186.209 151.5,186.5C 138.167,172.5 124.5,158.833 110.5,145.5C 106.833,141.167 102.833,137.167 98.5,133.5C 97.5,131.833 96.1667,130.5 94.5,129.5C 94.4606,128.417 94.1272,127.417 93.5,126.5C 95.9337,124.079 97.9337,121.412 99.5,118.5C 103.5,115.167 107.167,111.5 110.5,107.5C 112.5,107.5 113.5,106.5 113.5,104.5C 116.167,102.5 118.5,100.167 120.5,97.5C 122.5,97.5 123.5,96.5 123.5,94.5C 130.881,87.7853 137.881,80.7853 144.5,73.5C 147.167,71.5 149.5,69.1667 151.5,66.5C 158.833,59.5 166.167,52.5 173.5,45.5C 174.167,45.5 174.5,45.1667 174.5,44.5C 176.167,43.5 177.5,42.1667 178.5,40.5C 180.833,38.8333 182.833,36.8333 184.5,34.5C 185.167,34.5 185.5,34.1667 185.5,33.5C 187.757,32.4382 188.923,30.7715 189,28.5C 184.353,25.4282 179.52,22.7615 174.5,20.5C 173.22,19.0687 171.553,18.4021 169.5,18.5C 168.22,17.0687 166.553,16.4021 164.5,16.5C 161.495,14.7234 158.162,13.7234 154.5,13.5 Z M 156.5,183.5 C 161.167,190.167 166.833,195.833 173.5,200.5C 171.393,201.468 169.059,201.802 166.5,201.5C 162.833,197.167 158.833,193.167 154.5,189.5C 154.025,186.918 154.692,184.918 156.5,183.5 Z M 176.5,203.5 C 176.5,204.833 177.167,205.5 178.5,205.5C 178.833,206.5 179.5,207.167 180.5,207.5C 180.833,209.833 182.167,211.167 184.5,211.5C 185.39,213.782 185.556,216.115 185,218.5C 182.564,215.553 179.731,213.22 176.5,211.5C 176.5,209.5 175.5,208.5 173.5,208.5C 172.5,206.833 171.167,205.5 169.5,204.5C 169.369,203.624 169.702,202.957 170.5,202.5C 172.409,203.348 174.409,203.682 176.5,203.5 Z M 188.5,215.5 C 190.833,218.5 193.5,221.167 196.5,223.5C 195.167,224.833 193.833,226.167 192.5,227.5C 190.742,227.877 189.075,228.544 187.5,229.5C 187.167,229.167 186.833,228.833 186.5,228.5C 187.193,227.482 187.859,226.482 188.5,225.5C 189.097,225.265 189.43,224.765 189.5,224C 188.047,222.217 187.047,220.217 186.5,218C 186.684,216.624 187.351,215.791 188.5,215.5 Z M 184.5,228.5 C 185.774,229.189 185.774,230.023 184.5,231C 182.086,232.885 179.419,233.552 176.5,233C 179.391,231.726 182.058,230.226 184.5,228.5 Z M 173.5,236.5 C 171.5,236.833 169.5,237.167 167.5,237.5C 169.32,235.539 171.32,235.206 173.5,236.5 Z"/></g>
<g><path style="opacity:0.004" fill="#fefffe" d="M 707.5,2.5 C 708.833,3.16667 708.833,3.16667 707.5,2.5 Z"/></g>
<g><path style="opacity:0.686" fill="#aaaaa8" d="M 114.5,2.5 C 110.111,4.24624 105.444,5.24624 100.5,5.5C 104.889,3.75376 109.556,2.75376 114.5,2.5 Z"/></g>
<g><path style="opacity:0.118" fill="#d2d2d2" d="M 156.5,3.5 C 159.781,3.42032 162.781,4.08699 165.5,5.5C 162.219,5.57968 159.219,4.91301 156.5,3.5 Z"/></g>
<g><path style="opacity:0.004" fill="#fefffe" d="M 290.5,3.5 C 291.833,4.16667 291.833,4.16667 290.5,3.5 Z"/></g>
<g><path style="opacity:0.004" fill="#fefffe" d="M 458.5,4.5 C 459.833,5.16667 459.833,5.16667 458.5,4.5 Z"/></g>
<g><path style="opacity:0.902" fill="#8e8e8e" d="M 100.5,5.5 C 98.5615,7.16276 96.2282,7.82943 93.5,7.5C 95.5994,6.38815 97.9327,5.72148 100.5,5.5 Z"/></g>
<g><path style="opacity:0.147" fill="#e9dcdc" d="M 138.5,9.5 C 143.391,9.53188 148.057,10.1985 152.5,11.5C 151.508,11.3284 150.842,11.6618 150.5,12.5C 146.226,12.1301 142.226,11.1301 138.5,9.5 Z"/></g>
<g><path style="opacity:0.231" fill="#d6d6d6" d="M 180.5,10.5 C 182.38,10.2291 183.713,10.8958 184.5,12.5C 182.847,12.3404 181.514,11.6737 180.5,10.5 Z"/></g>
<g><path style="opacity:0.004" fill="#fefffe" d="M 449.5,10.5 C 450.833,11.1667 450.833,11.1667 449.5,10.5 Z"/></g>
<g><path style="opacity:0.651" fill="#b9b8b8" d="M 85.5,10.5 C 84.4863,11.6737 83.153,12.3404 81.5,12.5C 82.287,10.8958 83.6203,10.2291 85.5,10.5 Z"/></g>
<g><path style="opacity:1" fill="#fe565b" d="M 138.5,9.5 C 142.226,11.1301 146.226,12.1301 150.5,12.5C 151.568,13.4345 152.901,13.7678 154.5,13.5C 155.058,14.7899 156.058,15.6232 157.5,16C 159.81,16.4966 162.143,16.6633 164.5,16.5C 164.987,17.4734 165.487,18.4734 166,19.5C 167.011,18.6634 168.178,18.33 169.5,18.5C 169.987,19.4734 170.487,20.4734 171,21.5C 172.011,20.6634 173.178,20.33 174.5,20.5C 177.372,23.8649 180.872,26.5316 185,28.5C 185.494,30.1341 185.66,31.8008 185.5,33.5C 185.5,34.1667 185.167,34.5 184.5,34.5C 179.584,32.8224 177.584,34.8224 178.5,40.5C 177.533,39.1938 176.199,38.5271 174.5,38.5C 174.5,40.5 174.5,42.5 174.5,44.5C 174.5,45.1667 174.167,45.5 173.5,45.5C 173.5,44.5 173.5,43.5 173.5,42.5C 169.5,41.8333 167.833,43.5 168.5,47.5C 167.5,47.5 166.5,47.5 165.5,47.5C 165.657,48.8734 165.49,50.2068 165,51.5C 163.703,50.2164 162.536,50.3831 161.5,52C 162.308,52.3076 162.975,52.8076 163.5,53.5C 157.96,53.9807 154.96,56.9807 154.5,62.5C 153.127,62.3433 151.793,62.51 150.5,63C 151.337,64.0113 151.67,65.1779 151.5,66.5C 149.5,69.1667 147.167,71.5 144.5,73.5C 142.863,72.7822 141.197,72.6155 139.5,73C 140.167,73.6667 140.833,74.3333 141.5,75C 137.222,75.7751 134.889,78.2751 134.5,82.5C 132.692,82.4914 131.025,82.9914 129.5,84C 128.167,84.6667 128.167,85.3333 129.5,86C 127.5,87 125.5,88 123.5,89C 126.051,90.5158 125.718,91.3491 122.5,91.5C 122.5,92.5 122.5,93.5 122.5,94.5C 121.833,95.5 121.167,96.5 120.5,97.5C 118.5,100.167 116.167,102.5 113.5,104.5C 112.167,105.167 111.167,106.167 110.5,107.5C 107.167,111.5 103.5,115.167 99.5,118.5C 95.3694,120.754 93.2027,124.088 93,128.5C 93.3826,129.056 93.8826,129.389 94.5,129.5C 94.5246,132.179 95.858,133.512 98.5,133.5C 102.833,137.167 106.833,141.167 110.5,145.5C 111.851,148.039 113.018,150.706 114,153.5C 117.021,154.09 119.188,155.757 120.5,158.5C 117.517,162.15 118.183,163.484 122.5,162.5C 126.951,163.118 129.617,165.618 130.5,170C 132.101,170.273 133.601,170.773 135,171.5C 136.261,173.63 136.761,175.797 136.5,178C 138.7,178.464 141.033,178.964 143.5,179.5C 144.419,182.649 144.919,185.649 145,188.5C 146.961,186.42 149.128,186.086 151.5,187.5C 152.5,188.167 153.5,188.833 154.5,189.5C 158.833,193.167 162.833,197.167 166.5,201.5C 167.167,202.833 168.167,203.833 169.5,204.5C 171.167,205.5 172.5,206.833 173.5,208.5C 174.167,209.833 175.167,210.833 176.5,211.5C 180.897,215.892 184.897,220.558 188.5,225.5C 178.997,230.917 168.997,235.25 158.5,238.5C 153.708,238.732 149.041,239.565 144.5,241C 134.151,241.832 123.817,241.666 113.5,240.5C 103.639,237.569 93.6389,235.236 83.5,233.5C 82.1667,232.5 80.8333,231.5 79.5,230.5C 77.7239,226.186 74.3906,224.52 69.5,225.5C 65.7894,222.111 62.7894,218.111 60.5,213.5C 58.9361,214.186 57.2694,214.019 55.5,213C 52.9348,210.92 50.2682,209.087 47.5,207.5C 34.2354,192.636 24.9021,175.636 19.5,156.5C 19.8674,152.033 19.3674,147.7 18,143.5C 17.3333,131.833 17.3333,120.167 18,108.5C 19.9783,101.589 21.4783,94.5886 22.5,87.5C 22.5,86.8333 22.5,86.1667 22.5,85.5C 26.6983,81.104 29.3649,75.7707 30.5,69.5C 32.0002,65.827 34.0002,62.4937 36.5,59.5C 38.5869,58.4154 39.9202,56.7488 40.5,54.5C 44.2343,51.7689 47.2343,48.4356 49.5,44.5C 55.6665,41.4825 60.9998,37.3158 65.5,32C 66.8989,31.4054 68.2322,31.5721 69.5,32.5C 70.2916,31.3002 70.2916,29.9669 69.5,28.5C 71.4817,28.0046 73.4817,27.5046 75.5,27C 78.7559,24.2233 82.0892,21.7233 85.5,19.5C 87.7925,19.2436 89.9592,19.5769 92,20.5C 92.3173,18.6992 92.984,18.3659 94,19.5C 95.2183,17.9808 96.7183,16.8141 98.5,16C 105.294,14.4691 111.961,12.6358 118.5,10.5C 124.979,9.50929 131.646,9.17596 138.5,9.5 Z"/></g>
<g><path style="opacity:0.2" fill="#f6dedf" d="M 153.5,11.5 C 155.099,11.2322 156.432,11.5655 157.5,12.5C 156.209,12.2627 155.209,12.596 154.5,13.5C 152.901,13.7678 151.568,13.4345 150.5,12.5C 151.791,12.7373 152.791,12.404 153.5,11.5 Z"/></g>
<g><path style="opacity:0.808" fill="#9d9f9f" d="M 159.5,12.5 C 161.898,12.2594 163.898,12.9261 165.5,14.5C 163.214,14.405 161.214,13.7384 159.5,12.5 Z"/></g>
<g><path style="opacity:0.988" fill="#7a787a" d="M 81.5,12.5 C 80.3646,14.2132 78.698,14.8799 76.5,14.5C 77.7804,13.0687 79.4471,12.4021 81.5,12.5 Z"/></g>
<g><path style="opacity:0.325" fill="#bdbdbd" d="M 186.5,13.5 C 189.089,13.461 191.089,14.461 192.5,16.5C 190.181,16.0075 188.181,15.0075 186.5,13.5 Z"/></g>
<g><path style="opacity:0.004" fill="#fefffe" d="M 398.5,13.5 C 399.833,14.1667 399.833,14.1667 398.5,13.5 Z"/></g>
<g><path style="opacity:1" fill="#c94f53" d="M 118.5,10.5 C 111.961,12.6358 105.294,14.4691 98.5,16C 96.7183,16.8141 95.2183,17.9808 94,19.5C 92.984,18.3659 92.3173,18.6992 92,20.5C 89.9592,19.5769 87.7925,19.2436 85.5,19.5C 91.6422,17.0041 97.9755,14.6708 104.5,12.5C 109.052,11.0143 113.719,10.3477 118.5,10.5 Z"/></g>
<g><path style="opacity:1" fill="#f79fa0" d="M 154.5,13.5 C 158.162,13.7234 161.495,14.7234 164.5,16.5C 162.143,16.6633 159.81,16.4966 157.5,16C 156.058,15.6232 155.058,14.7899 154.5,13.5 Z"/></g>
<g><path style="opacity:0.722" fill="#acacac" d="M 74.5,15.5 C 74.0269,16.9063 73.0269,17.573 71.5,17.5C 71.9731,16.0937 72.9731,15.427 74.5,15.5 Z"/></g>
<g><path style="opacity:0.937" fill="#80797f" d="M 172.5,16.5 C 174.698,16.1201 176.365,16.7868 177.5,18.5C 175.597,18.2041 173.93,17.5375 172.5,16.5 Z"/></g>
<g><path style="opacity:0.004" fill="#fefffe" d="M 542.5,16.5 C 543.833,17.1667 543.833,17.1667 542.5,16.5 Z"/></g>
<g><path style="opacity:0.004" fill="#fefffe" d="M 284.5,17.5 C 285.833,18.1667 285.833,18.1667 284.5,17.5 Z"/></g>
<g><path style="opacity:0.565" fill="#cecfce" d="M 71.5,17.5 C 70.4863,18.6737 69.153,19.3404 67.5,19.5C 68.287,17.8958 69.6203,17.2291 71.5,17.5 Z"/></g>
<g><path style="opacity:1" fill="#f9a39e" d="M 164.5,16.5 C 166.553,16.4021 168.22,17.0687 169.5,18.5C 168.178,18.33 167.011,18.6634 166,19.5C 165.487,18.4734 164.987,17.4734 164.5,16.5 Z"/></g>
<g><path style="opacity:0.004" fill="#fefffe" d="M 458.5,19.5 C 459.833,20.1667 459.833,20.1667 458.5,19.5 Z"/></g>
<g><path style="opacity:0.247" fill="#d2d2d2" d="M 67.5,19.5 C 63.4474,22.8827 59.1141,25.8827 54.5,28.5C 58.0013,24.3375 62.3346,21.3375 67.5,19.5 Z"/></g>
<g><path style="opacity:1" fill="#faa6a3" d="M 169.5,18.5 C 171.553,18.4021 173.22,19.0687 174.5,20.5C 173.178,20.33 172.011,20.6634 171,21.5C 170.487,20.4734 169.987,19.4734 169.5,18.5 Z"/></g>
<g><path style="opacity:1" fill="#777878" d="M 196.5,18.5 C 198.027,18.427 199.027,19.0937 199.5,20.5C 197.877,21.4908 196.877,20.8241 196.5,18.5 Z"/></g>
<g><path style="opacity:0.255" fill="#c2c4c5" d="M 184.5,21.5 C 186.153,21.6596 187.486,22.3263 188.5,23.5C 186.62,23.7709 185.287,23.1042 184.5,21.5 Z"/></g>
<g><path style="opacity:0.973" fill="#818181" d="M 201.5,21.5 C 203.23,22.0256 204.564,23.0256 205.5,24.5C 203.368,24.4456 202.035,23.4456 201.5,21.5 Z"/></g>
<g><path style="opacity:0.478" fill="#b4b7b7" d="M 188.5,23.5 C 190.027,23.427 191.027,24.0937 191.5,25.5C 189.973,25.573 188.973,24.9063 188.5,23.5 Z"/></g>
<g><path style="opacity:0.043" fill="#d3d3d3" d="M 205.5,24.5 C 206.833,24.5 207.5,25.1667 207.5,26.5C 206.5,26.1667 205.833,25.5 205.5,24.5 Z"/></g>
<g><path style="opacity:1" fill="#bb494d" d="M 85.5,19.5 C 82.0892,21.7233 78.7559,24.2233 75.5,27C 73.4817,27.5046 71.4817,28.0046 69.5,28.5C 73.9437,24.0101 79.277,21.0101 85.5,19.5 Z"/></g>
<g><path style="opacity:1" fill="#f49191" d="M 174.5,20.5 C 179.52,22.7615 184.353,25.4282 189,28.5C 188.923,30.7715 187.757,32.4382 185.5,33.5C 185.66,31.8008 185.494,30.1341 185,28.5C 180.872,26.5316 177.372,23.8649 174.5,20.5 Z"/></g>
<g><path style="opacity:0.792" fill="#a7a6a5" d="M 238.5,29.5 C 235.781,30.913 232.781,31.5797 229.5,31.5C 232.219,30.087 235.219,29.4203 238.5,29.5 Z"/></g>
<g><path style="opacity:1" fill="#141111" d="M 266.5,34.5 C 267.659,36.2503 269.326,37.2503 271.5,37.5C 272.262,39.2624 273.596,40.2624 275.5,40.5C 276.167,40.5 276.5,40.8333 276.5,41.5C 277.167,42.8333 278.167,43.8333 279.5,44.5C 280.46,46.4607 281.793,48.1274 283.5,49.5C 283.427,51.0269 284.094,52.0269 285.5,52.5C 286.674,53.5137 287.34,54.847 287.5,56.5C 287.928,59.7846 288.928,62.7846 290.5,65.5C 292.032,81.0346 288.699,95.3679 280.5,108.5C 278.413,109.585 277.08,111.251 276.5,113.5C 275.833,114.833 274.833,115.833 273.5,116.5C 271.596,116.738 270.262,117.738 269.5,119.5C 266.839,122.502 263.505,124.502 259.5,125.5C 256.54,126.032 256.207,126.699 258.5,127.5C 261.992,128.41 264.992,130.076 267.5,132.5C 268.262,134.262 269.596,135.262 271.5,135.5C 272.5,135.833 273.167,136.5 273.5,137.5C 274.167,138.833 275.167,139.833 276.5,140.5C 278.458,143.792 280.791,146.792 283.5,149.5C 284.338,149.842 284.672,150.508 284.5,151.5C 284.66,153.153 285.326,154.486 286.5,155.5C 286.402,157.553 287.069,159.22 288.5,160.5C 293.471,178.98 290.137,195.647 278.5,210.5C 278.167,211.5 277.5,212.167 276.5,212.5C 274.596,212.738 273.262,213.738 272.5,215.5C 270.973,215.427 269.973,216.094 269.5,217.5C 257.083,223.332 244.083,224.998 230.5,222.5C 229.365,220.787 227.698,220.12 225.5,220.5C 223.181,220.008 221.181,219.008 219.5,217.5C 218.738,215.738 217.404,214.738 215.5,214.5C 211.773,209.77 207.44,205.77 202.5,202.5C 198.479,196.479 193.479,191.479 187.5,187.5C 182.812,180.812 177.146,175.146 170.5,170.5C 169.5,167.5 167.5,165.5 164.5,164.5C 163.5,161.5 161.5,159.5 158.5,158.5C 157.5,158.167 156.833,157.5 156.5,156.5C 156.5,154.5 155.5,153.5 153.5,153.5C 147.833,148.5 142.5,143.167 137.5,137.5C 137.512,134.858 136.179,133.525 133.5,133.5C 129.513,131.695 128.013,128.695 129,124.5C 134.369,118.964 139.869,113.63 145.5,108.5C 146.833,107.833 147.833,106.833 148.5,105.5C 149.833,103.5 151.5,101.833 153.5,100.5C 154.5,100.167 155.167,99.5 155.5,98.5C 162.5,90.8333 169.833,83.5 177.5,76.5C 178.833,75.8333 179.833,74.8333 180.5,73.5C 181.833,71.5 183.5,69.8333 185.5,68.5C 186.5,68.1667 187.167,67.5 187.5,66.5C 195.167,58.1667 203.167,50.1667 211.5,42.5C 213.404,42.2624 214.738,41.2624 215.5,39.5C 217.404,39.2624 218.738,38.2624 219.5,36.5C 221.027,36.573 222.027,35.9063 222.5,34.5C 222.842,33.6618 223.508,33.3284 224.5,33.5C 226.698,33.8799 228.365,33.2132 229.5,31.5C 232.781,31.5797 235.781,30.913 238.5,29.5C 248.412,28.2362 257.745,29.9029 266.5,34.5 Z M 248.5,39.5 C 248.5,39.1667 248.5,38.8333 248.5,38.5C 254.469,39.1566 260.136,40.8233 265.5,43.5C 265.973,44.9063 266.973,45.573 268.5,45.5C 268.5,46.8333 269.167,47.5 270.5,47.5C 270.833,48.5 271.5,49.1667 272.5,49.5C 273.124,51.754 274.457,53.4206 276.5,54.5C 281.059,64.2826 282.725,74.616 281.5,85.5C 280.388,87.5994 279.721,89.9327 279.5,92.5C 277.659,94.8485 276.326,97.5152 275.5,100.5C 274.094,100.973 273.427,101.973 273.5,103.5C 271.086,104.911 269.419,106.911 268.5,109.5C 267.5,109.833 266.833,110.5 266.5,111.5C 264.973,111.427 263.973,112.094 263.5,113.5C 261.973,113.427 260.973,114.094 260.5,115.5C 258.973,115.427 257.973,116.094 257.5,117.5C 253.605,118.462 249.939,119.796 246.5,121.5C 244.585,121.784 242.919,121.451 241.5,120.5C 243.786,120.405 245.786,119.738 247.5,118.5C 249.674,118.25 251.341,117.25 252.5,115.5C 257.043,113.628 260.71,110.628 263.5,106.5C 264.906,106.027 265.573,105.027 265.5,103.5C 266.974,102.564 267.974,101.23 268.5,99.5C 271.992,94.8303 274.159,89.4969 275,83.5C 275.667,78.5 275.667,73.5 275,68.5C 274.844,65.8091 274.011,63.4758 272.5,61.5C 272.539,58.911 271.539,56.911 269.5,55.5C 267.906,52.2358 265.573,49.5691 262.5,47.5C 259.071,42.782 254.404,40.1153 248.5,39.5 Z M 232.5,122.5 C 232.5,123.167 232.5,123.833 232.5,124.5C 231.167,126.167 231.167,127.833 232.5,129.5C 229.974,130.657 227.307,130.657 224.5,129.5C 224.261,127.533 224.594,125.699 225.5,124C 227.92,123.71 230.254,123.21 232.5,122.5 Z M 239.5,132.5 C 240.209,131.596 241.209,131.263 242.5,131.5C 243.167,131.5 243.833,131.5 244.5,131.5C 246.302,132.458 248.302,133.125 250.5,133.5C 253.007,134.892 255.673,135.892 258.5,136.5C 258.973,137.906 259.973,138.573 261.5,138.5C 261.973,139.906 262.973,140.573 264.5,140.5C 266.5,143.167 268.833,145.5 271.5,147.5C 271.738,149.404 272.738,150.738 274.5,151.5C 274.75,153.674 275.75,155.341 277.5,156.5C 280.939,166.218 282.272,176.551 281.5,187.5C 280.262,189.214 279.595,191.214 279.5,193.5C 278.326,194.514 277.66,195.847 277.5,197.5C 274.195,201.141 270.862,204.808 267.5,208.5C 262.745,210.625 257.912,212.625 253,214.5C 252.5,214.333 252,214.167 251.5,214C 252.416,213.722 253.082,213.222 253.5,212.5C 256.331,211.921 258.664,210.588 260.5,208.5C 261.833,207.833 262.833,206.833 263.5,205.5C 266.261,204.407 267.927,202.407 268.5,199.5C 269.906,199.027 270.573,198.027 270.5,196.5C 274.174,190.809 275.841,184.476 275.5,177.5C 275.866,172.102 274.866,167.102 272.5,162.5C 272.598,160.447 271.931,158.78 270.5,157.5C 270.155,154.802 268.822,152.802 266.5,151.5C 266.573,149.973 265.906,148.973 264.5,148.5C 263.5,145.5 261.5,143.5 258.5,142.5C 258.167,141.5 257.5,140.833 256.5,140.5C 255.198,138.178 253.198,136.845 250.5,136.5C 249.486,135.326 248.153,134.66 246.5,134.5C 244.786,133.262 242.786,132.595 240.5,132.5C 240.167,132.5 239.833,132.5 239.5,132.5 Z"/></g>
<g><path style="opacity:0.004" fill="#fefffe" d="M 482.5,30.5 C 483.833,31.1667 483.833,31.1667 482.5,30.5 Z"/></g>
<g><path style="opacity:0.004" fill="#fefffe" d="M 20.5,31.5 C 21.8333,32.1667 21.8333,32.1667 20.5,31.5 Z"/></g>
<g><path style="opacity:0.929" fill="#7e7e7d" d="M 229.5,31.5 C 228.365,33.2132 226.698,33.8799 224.5,33.5C 225.93,32.4625 227.597,31.7959 229.5,31.5 Z"/></g>
<g><path style="opacity:0.804" fill="#a6a5a3" d="M 54.5,28.5 C 51.1256,32.8755 47.1256,36.5422 42.5,39.5C 42.4142,38.5041 42.7476,37.6708 43.5,37C 47.0613,33.9274 50.728,31.0941 54.5,28.5 Z"/></g>
<g><path style="opacity:1" fill="#cc5154" d="M 69.5,28.5 C 70.2916,29.9669 70.2916,31.3002 69.5,32.5C 68.2322,31.5721 66.8989,31.4054 65.5,32C 60.9998,37.3158 55.6665,41.4825 49.5,44.5C 55.2956,38.0335 61.9622,32.7002 69.5,28.5 Z"/></g>
<g><path style="opacity:1" fill="#fa9191" d="M 184.5,34.5 C 182.833,36.8333 180.833,38.8333 178.5,40.5C 177.584,34.8224 179.584,32.8224 184.5,34.5 Z"/></g>
<g><path style="opacity:0.725" fill="#ababad" d="M 222.5,34.5 C 222.027,35.9063 221.027,36.573 219.5,36.5C 219.973,35.0937 220.973,34.427 222.5,34.5 Z"/></g>
<g><path style="opacity:0.361" fill="#cfcfcf" d="M 266.5,34.5 C 268.674,34.7497 270.341,35.7497 271.5,37.5C 269.326,37.2503 267.659,36.2503 266.5,34.5 Z"/></g>
<g><path style="opacity:0.788" fill="#858685" d="M 219.5,36.5 C 218.738,38.2624 217.404,39.2624 215.5,39.5C 216.262,37.7376 217.596,36.7376 219.5,36.5 Z"/></g>
<g><path style="opacity:0.024" fill="#fbefee" d="M 242.5,38.5 C 242.5,38.1667 242.5,37.8333 242.5,37.5C 243.833,37.5 245.167,37.5 246.5,37.5C 246.842,38.3382 247.508,38.6716 248.5,38.5C 248.5,38.8333 248.5,39.1667 248.5,39.5C 246.5,39.1667 244.5,38.8333 242.5,38.5 Z"/></g>
<g><path style="opacity:0.047" fill="#d2d2d2" d="M 271.5,37.5 C 273.404,37.7376 274.738,38.7376 275.5,40.5C 273.596,40.2624 272.262,39.2624 271.5,37.5 Z"/></g>
<g><path style="opacity:0.004" fill="#fefffe" d="M 464.5,37.5 C 465.833,38.1667 465.833,38.1667 464.5,37.5 Z"/></g>
<g><path style="opacity:0.004" fill="#fefffe" d="M 665.5,37.5 C 666.833,38.1667 666.833,38.1667 665.5,37.5 Z"/></g>
<g><path style="opacity:1" fill="#fd8b8c" d="M 178.5,40.5 C 177.5,42.1667 176.167,43.5 174.5,44.5C 174.5,42.5 174.5,40.5 174.5,38.5C 176.199,38.5271 177.533,39.1938 178.5,40.5 Z"/></g>
<g><path style="opacity:0.004" fill="#fefffe" d="M 341.5,38.5 C 342.833,39.1667 342.833,39.1667 341.5,38.5 Z"/></g>
<g><path style="opacity:0.533" fill="#b8b9ba" d="M 187.5,39.5 C 187.167,40.5 186.5,41.1667 185.5,41.5C 185.5,40.1667 186.167,39.5 187.5,39.5 Z"/></g>
<g><path style="opacity:1" fill="#f27579" d="M 242.5,38.5 C 244.5,38.8333 246.5,39.1667 248.5,39.5C 254.404,40.1153 259.071,42.782 262.5,47.5C 258.979,47.17 255.979,45.67 253.5,43C 246.749,39.7728 239.749,38.9394 232.5,40.5C 235.507,38.8255 238.84,38.1588 242.5,38.5 Z"/></g>
<g><path style="opacity:1" fill="#fe565b" d="M 262.5,47.5 C 264.02,50.7878 266.353,53.4544 269.5,55.5C 270.167,57.5 270.833,59.5 271.5,61.5C 272.538,69.8056 272.705,78.1389 272,86.5C 270.667,87.1667 269.667,88.1667 269,89.5C 268.006,94.2788 266.839,98.9455 265.5,103.5C 265.167,103.5 264.833,103.5 264.5,103.5C 263.167,103.5 261.833,103.5 260.5,103.5C 260.649,104.552 260.483,105.552 260,106.5C 259.333,105.167 258.667,105.167 258,106.5C 257.667,108.167 257.333,109.833 257,111.5C 256.259,112.641 255.425,112.641 254.5,111.5C 253.638,112.766 252.971,114.099 252.5,115.5C 250.801,115.34 249.134,115.506 247.5,116C 248.598,116.77 248.598,117.603 247.5,118.5C 245.5,118.5 243.5,118.5 241.5,118.5C 238.307,119.011 235.141,119.678 232,120.5C 223.247,118.911 220.247,122.578 223,131.5C 223.5,132 224,132.5 224.5,133C 233.531,132.758 242.198,134.258 250.5,137.5C 252.517,138.529 254.517,139.529 256.5,140.5C 257.5,140.833 258.167,141.5 258.5,142.5C 260.167,144.833 262.167,146.833 264.5,148.5C 264.427,150.027 265.094,151.027 266.5,151.5C 267.34,153.853 268.674,155.853 270.5,157.5C 270.402,159.553 271.069,161.22 272.5,162.5C 273.118,167.997 273.785,173.497 274.5,179C 273.99,185.053 272.657,190.887 270.5,196.5C 269.094,196.973 268.427,197.973 268.5,199.5C 267.318,201.1 265.985,201.433 264.5,200.5C 263.548,202.045 263.215,203.712 263.5,205.5C 262.167,205.5 260.833,205.5 259.5,205.5C 259.5,206.5 259.5,207.5 259.5,208.5C 257.5,209.5 255.5,210.5 253.5,211.5C 247.616,213.232 241.616,213.732 235.5,213C 234.167,212 234.167,211 235.5,210C 233.028,207.916 230.695,208.083 228.5,210.5C 226.423,209.063 224.09,208.396 221.5,208.5C 221.238,205.309 219.905,202.642 217.5,200.5C 214.335,199.415 211.335,198.082 208.5,196.5C 206.877,188.877 202.211,184.211 194.5,182.5C 193.183,178.517 190.517,175.85 186.5,174.5C 187.338,169.658 185.338,166.991 180.5,166.5C 180.167,165.833 179.833,165.167 179.5,164.5C 180.73,162.067 181.73,159.567 182.5,157C 179.849,157.878 177.016,158.711 174,159.5C 170.86,152.869 165.694,148.536 158.5,146.5C 152.833,141.5 147.5,136.167 142.5,130.5C 142.185,128.774 142.019,127.107 142,125.5C 155.251,112.584 168.084,99.4177 180.5,86C 182.24,84.3055 184.24,83.1389 186.5,82.5C 186.5,81.5 186.5,80.5 186.5,79.5C 192.833,75.1667 198.167,69.8333 202.5,63.5C 209.649,57.8505 216.316,51.6838 222.5,45C 226.004,43.7455 229.337,42.2455 232.5,40.5C 239.749,38.9394 246.749,39.7728 253.5,43C 255.979,45.67 258.979,47.17 262.5,47.5 Z"/></g>
<g><path style="opacity:0.737" fill="#939392" d="M 215.5,39.5 C 214.738,41.2624 213.404,42.2624 211.5,42.5C 212.262,40.7376 213.596,39.7376 215.5,39.5 Z"/></g>
<g><path style="opacity:0.043" fill="#e4e4e4" d="M 276.5,41.5 C 278.5,41.5 279.5,42.5 279.5,44.5C 278.167,43.8333 277.167,42.8333 276.5,41.5 Z"/></g>
<g><path style="opacity:1" fill="#fa7d7f" d="M 173.5,45.5 C 166.167,52.5 158.833,59.5 151.5,66.5C 151.67,65.1779 151.337,64.0113 150.5,63C 151.793,62.51 153.127,62.3433 154.5,62.5C 154.96,56.9807 157.96,53.9807 163.5,53.5C 162.975,52.8076 162.308,52.3076 161.5,52C 162.536,50.3831 163.703,50.2164 165,51.5C 165.49,50.2068 165.657,48.8734 165.5,47.5C 166.5,47.5 167.5,47.5 168.5,47.5C 167.833,43.5 169.5,41.8333 173.5,42.5C 173.5,43.5 173.5,44.5 173.5,45.5 Z"/></g>
<g><path style="opacity:0.024" fill="#cdcbcc" d="M 196.5,41.5 C 196.5,42.8333 195.833,43.5 194.5,43.5C 194.833,42.5 195.5,41.8333 196.5,41.5 Z"/></g>
<g><path style="opacity:0.533" fill="#b6b7b7" d="M 184.5,42.5 C 184.167,43.5 183.5,44.1667 182.5,44.5C 182.5,43.1667 183.167,42.5 184.5,42.5 Z"/></g>
<g><path style="opacity:0.004" fill="#fefffe" d="M 611.5,43.5 C 612.833,44.1667 612.833,44.1667 611.5,43.5 Z"/></g>
<g><path style="opacity:0.545" fill="#abadae" d="M 265.5,43.5 C 267.027,43.427 268.027,44.0937 268.5,45.5C 266.973,45.573 265.973,44.9063 265.5,43.5 Z"/></g>
<g><path style="opacity:0.063" fill="#cdcdcd" d="M 279.5,44.5 C 281.935,45.2702 283.269,46.9368 283.5,49.5C 281.793,48.1274 280.46,46.4607 279.5,44.5 Z"/></g>
<g><path style="opacity:1" fill="#ad4348" d="M 242.5,37.5 C 242.5,37.8333 242.5,38.1667 242.5,38.5C 238.84,38.1588 235.507,38.8255 232.5,40.5C 229.337,42.2455 226.004,43.7455 222.5,45C 216.316,51.6838 209.649,57.8505 202.5,63.5C 208.609,56.8892 214.943,50.3892 221.5,44C 227.779,39.5181 234.779,37.3515 242.5,37.5 Z"/></g>
<g><path style="opacity:0.008" fill="#e6e6e6" d="M 268.5,45.5 C 269.5,45.8333 270.167,46.5 270.5,47.5C 269.167,47.5 268.5,46.8333 268.5,45.5 Z"/></g>
<g><path style="opacity:0.004" fill="#fefffe" d="M 380.5,47.5 C 381.833,48.1667 381.833,48.1667 380.5,47.5 Z"/></g>
<g><path style="opacity:1" fill="#a43e40" d="M 49.5,44.5 C 47.2343,48.4356 44.2343,51.7689 40.5,54.5C 42.7657,50.5644 45.7657,47.2311 49.5,44.5 Z"/></g>
<g><path style="opacity:0.973" fill="#f6a5a6" d="M 262.5,47.5 C 265.573,49.5691 267.906,52.2358 269.5,55.5C 266.353,53.4544 264.02,50.7878 262.5,47.5 Z"/></g>
<g><path style="opacity:0.451" fill="#d0cfd0" d="M 42.5,39.5 C 37.8565,45.1475 33.1899,50.8142 28.5,56.5C 31.7227,49.6137 36.3894,43.947 42.5,39.5 Z"/></g>
<g><path style="opacity:0.012" fill="#c5c5c6" d="M 272.5,49.5 C 274.531,50.5387 275.864,52.2054 276.5,54.5C 274.457,53.4206 273.124,51.754 272.5,49.5 Z"/></g>
<g><path style="opacity:0.337" fill="#d9d9d9" d="M 283.5,49.5 C 284.906,49.9731 285.573,50.9731 285.5,52.5C 284.094,52.0269 283.427,51.0269 283.5,49.5 Z"/></g>
<g><path style="opacity:0.078" fill="#c9c9c9" d="M 186.5,51.5 C 186.5,52.8333 185.833,53.5 184.5,53.5C 184.833,52.5 185.5,51.8333 186.5,51.5 Z"/></g>
<g><path style="opacity:0.004" fill="#fefffe" d="M 575.5,55.5 C 576.833,56.1667 576.833,56.1667 575.5,55.5 Z"/></g>
<g><path style="opacity:0.243" fill="#ffe6e6" d="M 269.5,55.5 C 271.539,56.911 272.539,58.911 272.5,61.5C 272.167,61.5 271.833,61.5 271.5,61.5C 270.833,59.5 270.167,57.5 269.5,55.5 Z"/></g>
<g><path style="opacity:1" fill="#7a242f" d="M 40.5,54.5 C 39.9202,56.7488 38.5869,58.4154 36.5,59.5C 37.0798,57.2512 38.4131,55.5846 40.5,54.5 Z"/></g>
<g><path style="opacity:0.004" fill="#fefffe" d="M 722.5,60.5 C 723.833,61.1667 723.833,61.1667 722.5,60.5 Z"/></g>
<g><path style="opacity:0.286" fill="#d6d6d6" d="M 28.5,56.5 C 27.3307,59.5113 25.664,62.178 23.5,64.5C 24.1695,61.1511 25.8361,58.4844 28.5,56.5 Z"/></g>
<g><path style="opacity:0.063" fill="#ececec" d="M 287.5,56.5 C 289.472,59.0836 290.472,62.0836 290.5,65.5C 288.928,62.7846 287.928,59.7846 287.5,56.5 Z"/></g>
<g><path style="opacity:0.004" fill="#fefffe" d="M 602.5,61.5 C 603.833,62.1667 603.833,62.1667 602.5,61.5 Z"/></g>
<g><path style="opacity:0.004" fill="#fefffe" d="M 335.5,64.5 C 336.833,65.1667 336.833,65.1667 335.5,64.5 Z"/></g>
<g><path style="opacity:0.439" fill="#d0d2d0" d="M 187.5,66.5 C 187.167,67.5 186.5,68.1667 185.5,68.5C 185.5,67.1667 186.167,66.5 187.5,66.5 Z"/></g>
<g><path style="opacity:0.004" fill="#fefffe" d="M 518.5,67.5 C 519.833,68.1667 519.833,68.1667 518.5,67.5 Z"/></g>
<g><path style="opacity:0.231" fill="#dfdfdf" d="M 23.5,64.5 C 22.0078,68.8178 20.0078,72.8178 17.5,76.5C 17.3893,75.8826 17.056,75.3826 16.5,75C 18.7327,71.3485 21.066,67.8485 23.5,64.5 Z"/></g>
<g><path style="opacity:0.596" fill="#a6a8a8" d="M 155.5,71.5 C 155.167,72.5 154.5,73.1667 153.5,73.5C 153.5,72.1667 154.167,71.5 155.5,71.5 Z"/></g>
<g><path style="opacity:1" fill="#c24e53" d="M 202.5,63.5 C 198.167,69.8333 192.833,75.1667 186.5,79.5C 191.473,73.8604 196.806,68.5271 202.5,63.5 Z"/></g>
<g><path style="opacity:0.596" fill="#a7a7a8" d="M 152.5,74.5 C 152.167,75.5 151.5,76.1667 150.5,76.5C 150.5,75.1667 151.167,74.5 152.5,74.5 Z"/></g>
<g><path style="opacity:0.416" fill="#d6d5d5" d="M 180.5,73.5 C 179.833,74.8333 178.833,75.8333 177.5,76.5C 177.5,74.5 178.5,73.5 180.5,73.5 Z"/></g>
<g><path style="opacity:0.082" fill="#d3d3d3" d="M 276.5,54.5 C 283.594,63.9723 285.261,74.3056 281.5,85.5C 282.725,74.616 281.059,64.2826 276.5,54.5 Z"/></g>
<g><path style="opacity:1" fill="#f2696e" d="M 271.5,61.5 C 271.833,61.5 272.167,61.5 272.5,61.5C 276.028,74.6998 274.694,87.3664 268.5,99.5C 267.974,101.23 266.974,102.564 265.5,103.5C 266.839,98.9455 268.006,94.2788 269,89.5C 269.667,88.1667 270.667,87.1667 272,86.5C 272.705,78.1389 272.538,69.8056 271.5,61.5 Z"/></g>
<g><path style="opacity:1" fill="#bf4950" d="M 30.5,69.5 C 29.3649,75.7707 26.6983,81.104 22.5,85.5C 24.8739,79.9422 27.5405,74.6088 30.5,69.5 Z"/></g>
<g><path style="opacity:0.059" fill="#d1d1d1" d="M 154.5,83.5 C 154.5,84.8333 153.833,85.5 152.5,85.5C 152.833,84.5 153.5,83.8333 154.5,83.5 Z"/></g>
<g><path style="opacity:0.18" fill="#fee6e6" d="M 272.5,61.5 C 274.011,63.4758 274.844,65.8091 275,68.5C 275.667,73.5 275.667,78.5 275,83.5C 274.159,89.4969 271.992,94.8303 268.5,99.5C 274.694,87.3664 276.028,74.6998 272.5,61.5 Z"/></g>
<g><path style="opacity:1" fill="#f76e74" d="M 144.5,73.5 C 137.881,80.7853 130.881,87.7853 123.5,94.5C 123.167,94.5 122.833,94.5 122.5,94.5C 122.5,93.5 122.5,92.5 122.5,91.5C 125.718,91.3491 126.051,90.5158 123.5,89C 125.5,88 127.5,87 129.5,86C 128.167,85.3333 128.167,84.6667 129.5,84C 131.025,82.9914 132.692,82.4914 134.5,82.5C 134.889,78.2751 137.222,75.7751 141.5,75C 140.833,74.3333 140.167,73.6667 139.5,73C 141.197,72.6155 142.863,72.7822 144.5,73.5 Z"/></g>
<g><path style="opacity:0.004" fill="#fefffe" d="M 515.5,88.5 C 516.833,89.1667 516.833,89.1667 515.5,88.5 Z"/></g>
<g><path style="opacity:0.651" fill="#a8aaaa" d="M 138.5,88.5 C 137.5,90.1667 136.167,91.5 134.5,92.5C 134.833,90.1667 136.167,88.8333 138.5,88.5 Z"/></g>
<g><path style="opacity:0.227" fill="#e5e5e5" d="M 641.5,97.5 C 641.472,95.4176 642.139,93.5843 643.5,92C 639.637,90.6463 635.637,90.1463 631.5,90.5C 632.172,89.7326 633.005,89.0659 634,88.5C 637.131,89.2061 640.298,89.8728 643.5,90.5C 644.341,93.1792 643.675,95.5125 641.5,97.5 Z"/></g>
<g><path style="opacity:0.882" fill="#a6a6a5" d="M 16.5,78.5 C 15.4708,84.921 13.4708,90.921 10.5,96.5C 11.5271,90.0852 13.5271,84.0852 16.5,78.5 Z"/></g>
<g><path style="opacity:0.922" fill="#999999" d="M 281.5,85.5 C 281.662,87.5273 281.495,89.5273 281,91.5C 280.617,92.056 280.117,92.3893 279.5,92.5C 279.721,89.9327 280.388,87.5994 281.5,85.5 Z"/></g>
<g><path style="opacity:0.241" fill="#ebebeb" d="M 573.5,111.5 C 572.594,112.965 571.261,113.965 569.5,114.5C 568.503,106.862 568.169,99.1955 568.5,91.5C 563.5,91.5 558.5,91.5 553.5,91.5C 553.325,93.6208 553.659,95.6208 554.5,97.5C 552.748,97.5824 551.748,96.7491 551.5,95C 552.148,93.5603 552.481,92.0603 552.5,90.5C 558.176,90.3339 563.843,90.5006 569.5,91C 570.315,98.0867 570.815,105.253 571,112.5C 571.671,111.748 572.504,111.414 573.5,111.5 Z"/></g>
<g><path style="opacity:1" fill="#090909" d="M 630.5,90.5 C 630.833,90.5 631.167,90.5 631.5,90.5C 635.637,90.1463 639.637,90.6463 643.5,92C 642.139,93.5843 641.472,95.4176 641.5,97.5C 632.514,97.1607 628.847,101.494 630.5,110.5C 632.833,110.5 635.167,110.5 637.5,110.5C 637.5,111.833 637.5,113.167 637.5,114.5C 634.941,114.198 632.607,114.532 630.5,115.5C 630.333,126.505 630.5,137.505 631,148.5C 633.91,149.45 635.077,151.45 634.5,154.5C 628.167,154.5 621.833,154.5 615.5,154.5C 615.5,152.833 615.5,151.167 615.5,149.5C 615.842,148.662 616.508,148.328 617.5,148.5C 618.829,143.376 619.495,137.876 619.5,132C 619.333,126.5 619.167,121 619,115.5C 617.301,114.594 615.467,114.261 613.5,114.5C 613.5,113.167 613.5,111.833 613.5,110.5C 615.467,110.739 617.301,110.406 619,109.5C 618.773,100.608 622.606,94.2752 630.5,90.5 Z"/></g>
<g><path style="opacity:1" fill="#060606" d="M 573.5,111.5 C 573.842,110.662 574.508,110.328 575.5,110.5C 581.175,109.232 586.842,109.232 592.5,110.5C 592.973,111.906 593.973,112.573 595.5,112.5C 596.11,114.434 597.11,116.101 598.5,117.5C 597.858,128.221 598.525,138.554 600.5,148.5C 602.081,150.142 602.747,152.142 602.5,154.5C 596.167,154.5 589.833,154.5 583.5,154.5C 583.253,152.142 583.919,150.142 585.5,148.5C 586.827,144.049 587.494,139.216 587.5,134C 587.333,129.167 587.167,124.333 587,119.5C 586.535,118.069 585.701,116.903 584.5,116C 581.833,115.333 579.167,115.333 576.5,116C 575.584,116.278 574.918,116.778 574.5,117.5C 574.158,118.338 573.492,118.672 572.5,118.5C 570.983,118.511 569.816,119.177 569,120.5C 568.833,125.167 568.667,129.833 568.5,134.5C 568.507,139.551 569.173,144.217 570.5,148.5C 572.081,150.142 572.747,152.142 572.5,154.5C 566.167,154.5 559.833,154.5 553.5,154.5C 553.253,152.142 553.919,150.142 555.5,148.5C 556.831,140.528 557.498,132.194 557.5,123.5C 557.333,115.167 557.167,106.833 557,98.5C 556.329,97.7476 555.496,97.4142 554.5,97.5C 553.659,95.6208 553.325,93.6208 553.5,91.5C 558.5,91.5 563.5,91.5 568.5,91.5C 568.169,99.1955 568.503,106.862 569.5,114.5C 571.261,113.965 572.594,112.965 573.5,111.5 Z"/></g>
<g><path style="opacity:1" fill="#010101" d="M 709.5,92.5 C 714.167,92.5 718.833,92.5 723.5,92.5C 723.17,111.008 723.503,129.341 724.5,147.5C 724.842,148.338 725.508,148.672 726.5,148.5C 728.475,150.362 728.808,152.362 727.5,154.5C 721.5,154.5 715.5,154.5 709.5,154.5C 709.253,152.142 709.919,150.142 711.5,148.5C 712.831,140.528 713.498,132.194 713.5,123.5C 713.333,115.167 713.167,106.833 713,98.5C 712.329,97.7476 711.496,97.4142 710.5,97.5C 709.699,95.9582 709.366,94.2915 709.5,92.5 Z"/></g>
<g><path style="opacity:1" fill="#0b0b0b" d="M 758.5,149.5 C 759.807,150.802 759.807,152.135 758.5,153.5C 752.5,154.833 746.5,154.833 740.5,153.5C 739.193,152.135 739.193,150.802 740.5,149.5C 741.583,149.461 742.583,149.127 743.5,148.5C 744.666,131.843 744.833,115.177 744,98.5C 740.956,97.1971 739.789,94.8638 740.5,91.5C 745.5,91.5 750.5,91.5 755.5,91.5C 755.333,110.503 755.5,129.503 756,148.5C 756.671,149.252 757.504,149.586 758.5,149.5 Z"/></g>
<g><path style="opacity:0.065" fill="#fcfcfc" d="M 537.5,94.5 C 538.622,96.2884 538.789,98.2884 538,100.5C 537.505,98.5273 537.338,96.5273 537.5,94.5 Z"/></g>
<g><path style="opacity:0.051" fill="#fbdddc" d="M 122.5,94.5 C 122.833,94.5 123.167,94.5 123.5,94.5C 123.5,96.5 122.5,97.5 120.5,97.5C 121.167,96.5 121.833,95.5 122.5,94.5 Z"/></g>
<g><path style="opacity:0.298" fill="#d7d7d7" d="M 290.5,65.5 C 293.412,80.2896 290.745,94.2896 282.5,107.5C 282.043,108.298 281.376,108.631 280.5,108.5C 288.699,95.3679 292.032,81.0346 290.5,65.5 Z"/></g>
<g><path style="opacity:0.671" fill="#adadae" d="M 132.5,94.5 C 130.167,97.5 127.5,100.167 124.5,102.5C 126.167,98.8333 128.833,96.1667 132.5,94.5 Z"/></g>
<g><path style="opacity:0.329" fill="#cfd0cf" d="M 279.5,92.5 C 279.206,95.7541 277.873,98.4208 275.5,100.5C 276.326,97.5152 277.659,94.8485 279.5,92.5 Z"/></g>
<g><path style="opacity:1" fill="#040404" d="M 528.5,152.5 C 526.512,150.535 525.012,148.202 524,145.5C 523.5,135.172 523.334,124.839 523.5,114.5C 521.833,114.5 520.167,114.5 518.5,114.5C 518.5,113.167 518.5,111.833 518.5,110.5C 520.167,110.5 521.833,110.5 523.5,110.5C 523.036,106.498 523.702,102.831 525.5,99.5C 527.553,99.5979 529.22,98.9313 530.5,97.5C 531.822,97.67 532.989,97.3366 534,96.5C 534.499,101.155 534.666,105.821 534.5,110.5C 537.167,110.5 539.833,110.5 542.5,110.5C 542.5,111.833 542.5,113.167 542.5,114.5C 539.833,114.5 537.167,114.5 534.5,114.5C 534.334,124.506 534.5,134.506 535,144.5C 535.637,146.303 536.803,147.636 538.5,148.5C 539.466,150.396 539.799,152.396 539.5,154.5C 535.681,154.586 532.015,153.919 528.5,152.5 Z"/></g>
<g><path style="opacity:0.475" fill="#c9cbc9" d="M 155.5,98.5 C 155.167,99.5 154.5,100.167 153.5,100.5C 153.5,99.1667 154.167,98.5 155.5,98.5 Z"/></g>
<g><path style="opacity:0.337" fill="#dddddd" d="M 530.5,97.5 C 529.22,98.9313 527.553,99.5979 525.5,99.5C 526.78,98.0687 528.447,97.4021 530.5,97.5 Z"/></g>
<g><path style="opacity:0.451" fill="#cccccd" d="M 275.5,100.5 C 275.573,102.027 274.906,103.027 273.5,103.5C 273.427,101.973 274.094,100.973 275.5,100.5 Z"/></g>
<g><path style="opacity:0.02" fill="#fbe2e3" d="M 264.5,103.5 C 264.833,103.5 265.167,103.5 265.5,103.5C 265.573,105.027 264.906,106.027 263.5,106.5C 263.557,105.391 263.89,104.391 264.5,103.5 Z"/></g>
<g><path style="opacity:0.667" fill="#abaaab" d="M 123.5,103.5 C 122.167,105.5 120.5,107.167 118.5,108.5C 119.167,105.833 120.833,104.167 123.5,103.5 Z"/></g>
<g><path style="opacity:0.024" fill="#f9ddde" d="M 113.5,104.5 C 113.5,106.5 112.5,107.5 110.5,107.5C 111.167,106.167 112.167,105.167 113.5,104.5 Z"/></g>
<g><path style="opacity:1" fill="#c95358" d="M 186.5,79.5 C 186.5,80.5 186.5,81.5 186.5,82.5C 184.24,83.1389 182.24,84.3055 180.5,86C 168.084,99.4177 155.251,112.584 142,125.5C 142.019,127.107 142.185,128.774 142.5,130.5C 140.584,129.335 139.751,127.668 140,125.5C 155.524,109.808 171.024,94.4744 186.5,79.5 Z"/></g>
<g><path style="opacity:1" fill="#f98785" d="M 264.5,103.5 C 263.89,104.391 263.557,105.391 263.5,106.5C 260.71,110.628 257.043,113.628 252.5,115.5C 252.971,114.099 253.638,112.766 254.5,111.5C 255.425,112.641 256.259,112.641 257,111.5C 257.333,109.833 257.667,108.167 258,106.5C 258.667,105.167 259.333,105.167 260,106.5C 260.483,105.552 260.649,104.552 260.5,103.5C 261.833,103.5 263.167,103.5 264.5,103.5 Z"/></g>
<g><path style="opacity:0.048" fill="#f9f9f9" d="M 330.5,109.5 C 325.305,109.179 320.305,109.513 315.5,110.5C 314.876,110.917 314.543,111.584 314.5,112.5C 315.286,114.041 316.286,115.374 317.5,116.5C 316.504,116.586 315.671,116.252 315,115.5C 314.667,117.167 314.333,118.833 314,120.5C 313.803,115.914 313.303,111.414 312.5,107C 315.88,108.143 321.88,108.977 330.5,109.5 Z"/></g>
<g><path style="opacity:0.014" fill="#fefffe" d="M 658.5,107.5 C 659.601,106.402 660.934,106.235 662.5,107C 661.207,107.49 659.873,107.657 658.5,107.5 Z"/></g>
<g><path style="opacity:0.471" fill="#d0d0d0" d="M 148.5,105.5 C 147.833,106.833 146.833,107.833 145.5,108.5C 145.5,106.5 146.5,105.5 148.5,105.5 Z"/></g>
<g><path style="opacity:0.529" fill="#c6c6c6" d="M 273.5,103.5 C 272.581,106.089 270.914,108.089 268.5,109.5C 269.419,106.911 271.086,104.911 273.5,103.5 Z"/></g>
<g><path style="opacity:0.506" fill="#bebebe" d="M 554.5,97.5 C 555.496,97.4142 556.329,97.7476 557,98.5C 557.167,106.833 557.333,115.167 557.5,123.5C 557.498,132.194 556.831,140.528 555.5,148.5C 556.363,133.247 556.697,117.914 556.5,102.5C 556.563,100.486 555.897,98.8194 554.5,97.5 Z"/></g>
<g><path style="opacity:0.135" fill="#dedede" d="M 641.5,97.5 C 639.721,99.3435 637.388,100.01 634.5,99.5C 634.5,102.833 634.5,106.167 634.5,109.5C 636.167,109.5 637.833,109.5 639.5,109.5C 639.795,111.735 639.461,113.735 638.5,115.5C 638.784,113.585 638.451,111.919 637.5,110.5C 635.167,110.5 632.833,110.5 630.5,110.5C 628.847,101.494 632.514,97.1607 641.5,97.5 Z M 632.5,101.5 C 633.782,102.708 633.782,104.042 632.5,105.5C 631.708,104.3 631.708,102.967 632.5,101.5 Z M 631.5,107.5 C 633.337,107.639 633.67,108.306 632.5,109.5C 631.702,109.043 631.369,108.376 631.5,107.5 Z"/></g>
<g><path style="opacity:0.468" fill="#c6c6c6" d="M 710.5,97.5 C 711.496,97.4142 712.329,97.7476 713,98.5C 713.167,106.833 713.333,115.167 713.5,123.5C 713.498,132.194 712.831,140.528 711.5,148.5C 712.363,133.247 712.697,117.914 712.5,102.5C 712.563,100.486 711.897,98.8194 710.5,97.5 Z"/></g>
<g><path style="opacity:0.308" fill="#e5e5e5" d="M 726.5,148.5 C 725.508,148.672 724.842,148.338 724.5,147.5C 724.5,128.833 724.5,110.167 724.5,91.5C 719.305,91.1795 714.305,91.5128 709.5,92.5C 709.366,94.2915 709.699,95.9582 710.5,97.5C 708.748,97.5824 707.748,96.7491 707.5,95C 708.148,93.5603 708.481,92.0603 708.5,90.5C 714.167,90.5 719.833,90.5 725.5,90.5C 726.831,101.164 726.831,111.831 725.5,122.5C 725.529,127.915 726.195,133.082 727.5,138C 725.238,141.269 724.905,144.769 726.5,148.5 Z"/></g>
<g><path style="opacity:0.112" fill="#dcdcdc" d="M 758.5,149.5 C 757.504,149.586 756.671,149.252 756,148.5C 755.5,129.503 755.333,110.503 755.5,91.5C 750.5,91.5 745.5,91.5 740.5,91.5C 739.789,94.8638 740.956,97.1971 744,98.5C 744.833,115.177 744.666,131.843 743.5,148.5C 742.583,149.127 741.583,149.461 740.5,149.5C 740.783,148.711 741.283,148.044 742,147.5C 742.833,131.156 742.666,114.823 741.5,98.5C 738.856,97.259 738.023,95.259 739,92.5C 744.536,90.5745 750.369,89.9078 756.5,90.5C 756.744,108.174 756.744,125.84 756.5,143.5C 756.363,145.841 757.03,147.841 758.5,149.5 Z"/></g>
<g><path style="opacity:0.655" fill="#c2c2c2" d="M 353.5,110.5 C 348.547,109.671 343.547,109.337 338.5,109.5C 340.893,108.79 343.393,108.123 346,107.5C 348.756,108.07 351.256,109.07 353.5,110.5 Z"/></g>
<g><path style="opacity:0.05" fill="#fcfcfc" d="M 504.5,109.5 C 499.305,109.179 494.305,109.513 489.5,110.5C 489.167,110.5 488.833,110.5 488.5,110.5C 490.743,109.188 493.41,108.522 496.5,108.5C 499.355,108.503 502.022,108.836 504.5,109.5 Z"/></g>
<g><path style="opacity:0.629" fill="#b1b1b1" d="M 592.5,110.5 C 586.842,109.232 581.175,109.232 575.5,110.5C 575.918,109.778 576.584,109.278 577.5,109C 581.833,108.333 586.167,108.333 590.5,109C 591.416,109.278 592.082,109.778 592.5,110.5 Z"/></g>
<g><path style="opacity:0.04" fill="#f6f6f6" d="M 694.5,109.5 C 689.305,109.179 684.305,109.513 679.5,110.5C 678.28,112.05 678.28,113.716 679.5,115.5C 677.234,113.807 676.9,111.64 678.5,109C 684.016,108.183 689.35,108.349 694.5,109.5 Z"/></g>
<g><path style="opacity:0.743" fill="#6d6d6d" d="M 315.5,110.5 C 320.305,109.513 325.305,109.179 330.5,109.5C 330.232,111.099 330.566,112.432 331.5,113.5C 331.44,114.043 331.107,114.376 330.5,114.5C 329.571,113.311 329.238,111.978 329.5,110.5C 324.833,110.5 320.167,110.5 315.5,110.5 Z"/></g>
<g><path style="opacity:0.208" fill="#dcdcdc" d="M 338.5,109.5 C 336.819,111.008 334.819,112.008 332.5,112.5C 333.911,110.461 335.911,109.461 338.5,109.5 Z"/></g>
<g><path style="opacity:1" fill="#060606" d="M 338.5,109.5 C 343.547,109.337 348.547,109.671 353.5,110.5C 356.416,116.651 359.749,116.984 363.5,111.5C 363.842,110.662 364.508,110.328 365.5,110.5C 371.167,109.167 376.833,109.167 382.5,110.5C 382.973,111.906 383.973,112.573 385.5,112.5C 386.11,114.434 387.11,116.101 388.5,117.5C 387.858,128.221 388.525,138.554 390.5,148.5C 392.081,150.142 392.747,152.142 392.5,154.5C 386.167,154.5 379.833,154.5 373.5,154.5C 373.253,152.142 373.919,150.142 375.5,148.5C 376.827,144.049 377.494,139.216 377.5,134C 377.333,129.167 377.167,124.333 377,119.5C 376.535,118.069 375.701,116.903 374.5,116C 371.833,115.333 369.167,115.333 366.5,116C 365.584,116.278 364.918,116.778 364.5,117.5C 362.83,117.751 361.33,118.418 360,119.5C 359.333,129.167 359.333,138.833 360,148.5C 363.282,149.69 364.115,151.69 362.5,154.5C 356.5,154.5 350.5,154.5 344.5,154.5C 344.022,151.722 345.022,149.722 347.5,148.5C 348.665,138.851 348.832,129.184 348,119.5C 347.241,117.937 346.074,116.937 344.5,116.5C 342.034,115.366 339.367,115.199 336.5,116C 335.058,116.377 334.058,117.21 333.5,118.5C 332.504,118.414 331.671,118.748 331,119.5C 330.333,129.167 330.333,138.833 331,148.5C 331.671,149.252 332.504,149.586 333.5,149.5C 334.807,150.802 334.807,152.135 333.5,153.5C 327.537,154.496 321.537,154.829 315.5,154.5C 315.5,152.833 315.5,151.167 315.5,149.5C 316.583,149.461 317.583,149.127 318.5,148.5C 318.833,143.167 319.167,137.833 319.5,132.5C 319.495,126.789 318.828,121.456 317.5,116.5C 316.286,115.374 315.286,114.041 314.5,112.5C 314.543,111.584 314.876,110.917 315.5,110.5C 320.167,110.5 324.833,110.5 329.5,110.5C 329.238,111.978 329.571,113.311 330.5,114.5C 331.107,114.376 331.44,114.043 331.5,113.5C 332.167,113.5 332.5,113.167 332.5,112.5C 334.819,112.008 336.819,111.008 338.5,109.5 Z"/></g>
<g><path style="opacity:0.435" fill="#cbcbcb" d="M 382.5,110.5 C 376.833,109.167 371.167,109.167 365.5,110.5C 369.423,108.943 373.59,107.943 378,107.5C 379.652,108.399 381.152,109.399 382.5,110.5 Z"/></g>
<g><path style="opacity:0.302" fill="#c6c6c6" d="M 418.5,109.5 C 416.819,111.008 414.819,112.008 412.5,112.5C 413.911,110.461 415.911,109.461 418.5,109.5 Z"/></g>
<g><path style="opacity:1" fill="#0b0b0b" d="M 418.5,109.5 C 428.105,107.759 436.438,110.092 443.5,116.5C 447.92,125.547 448.587,134.88 445.5,144.5C 445.672,145.492 445.338,146.158 444.5,146.5C 441.833,148.5 439.5,150.833 437.5,153.5C 437.158,154.338 436.492,154.672 435.5,154.5C 429.87,155.292 424.203,155.625 418.5,155.5C 416.819,153.992 414.819,152.992 412.5,152.5C 411.167,150.5 409.5,148.833 407.5,147.5C 403.767,138.236 403.601,128.903 407,119.5C 408.666,117.004 410.5,114.671 412.5,112.5C 414.819,112.008 416.819,111.008 418.5,109.5 Z M 421.5,116.5 C 424.902,116.342 428.236,116.676 431.5,117.5C 433.787,122.199 435.121,127.199 435.5,132.5C 435.456,137.664 434.123,142.664 431.5,147.5C 428.236,148.324 424.902,148.658 421.5,148.5C 420.833,147.167 419.833,146.167 418.5,145.5C 418.204,143.597 417.537,141.93 416.5,140.5C 416.529,135.642 416.695,130.642 417,125.5C 417.454,121.925 418.954,118.925 421.5,116.5 Z"/></g>
<g><path style="opacity:0.067" fill="#f9f9f9" d="M 474.5,109.5 C 475.405,122.193 476.072,134.859 476.5,147.5C 474.896,146.713 474.229,145.38 474.5,143.5C 474.5,132.167 474.5,120.833 474.5,109.5 Z"/></g>
<g><path style="opacity:0.063" fill="#fbfbfb" d="M 504.5,109.5 C 505.825,113.445 506.492,117.778 506.5,122.5C 506.367,128.742 506.033,134.742 505.5,140.5C 506.064,143.565 506.731,146.565 507.5,149.5C 505.973,149.573 504.973,148.906 504.5,147.5C 504.5,134.833 504.5,122.167 504.5,109.5 Z"/></g>
<g><path style="opacity:0.488" fill="#c6c6c6" d="M 528.5,152.5 C 532.015,153.919 535.681,154.586 539.5,154.5C 539.799,152.396 539.466,150.396 538.5,148.5C 536.803,147.636 535.637,146.303 535,144.5C 534.5,134.506 534.334,124.506 534.5,114.5C 537.167,114.5 539.833,114.5 542.5,114.5C 542.5,113.167 542.5,111.833 542.5,110.5C 539.833,110.5 537.167,110.5 534.5,110.5C 534.666,105.821 534.499,101.155 534,96.5C 532.989,97.3366 531.822,97.67 530.5,97.5C 531.78,96.0687 533.447,95.4021 535.5,95.5C 535.724,99.9542 535.724,104.288 535.5,108.5C 537.846,109.015 540.513,109.348 543.5,109.5C 543.5,111.5 543.5,113.5 543.5,115.5C 541.833,115.5 540.167,115.5 538.5,115.5C 538.404,119.311 537.738,119.311 536.5,115.5C 536.167,119.167 535.833,122.833 535.5,126.5C 535.542,130.595 536.208,134.429 537.5,138C 535.213,140.243 535.047,142.743 537,145.5C 537.333,145.167 537.667,144.833 538,144.5C 538.415,146.291 539.415,147.624 541,148.5C 541.497,150.81 541.663,153.143 541.5,155.5C 539.876,155.36 538.71,156.027 538,157.5C 534.701,156.016 531.534,154.349 528.5,152.5 Z"/></g>
<g><path style="opacity:0.145" fill="#f3f3f3" d="M 330.5,109.5 C 331.167,110.5 331.833,111.5 332.5,112.5C 332.5,113.167 332.167,113.5 331.5,113.5C 330.566,112.432 330.232,111.099 330.5,109.5 Z"/></g>
<g><path style="opacity:0.102" fill="#d0d0d0" d="M 382.5,110.5 C 384.027,110.427 385.027,111.094 385.5,112.5C 383.973,112.573 382.973,111.906 382.5,110.5 Z"/></g>
<g><path style="opacity:0.302" fill="#c4c4c4" d="M 443.5,116.5 C 436.438,110.092 428.105,107.759 418.5,109.5C 426.883,106.896 434.883,108.23 442.5,113.5C 443.127,114.417 443.461,115.417 443.5,116.5 Z"/></g>
<g><path style="opacity:1" fill="#070707" d="M 459.5,110.5 C 464.167,110.5 468.833,110.5 473.5,110.5C 473.172,121.679 473.505,132.679 474.5,143.5C 474.229,145.38 474.896,146.713 476.5,147.5C 476.611,148.117 476.944,148.617 477.5,149C 480.167,149.667 482.833,149.667 485.5,149C 486.056,148.617 486.389,148.117 486.5,147.5C 486.842,146.662 487.508,146.328 488.5,146.5C 490.027,146.573 491.027,145.906 491.5,144.5C 492.827,140.217 493.493,135.551 493.5,130.5C 493.493,125.449 492.827,120.783 491.5,116.5C 489.455,115.077 488.455,113.077 488.5,110.5C 488.833,110.5 489.167,110.5 489.5,110.5C 494.167,110.5 498.833,110.5 503.5,110.5C 503.171,123.011 503.505,135.345 504.5,147.5C 504.973,148.906 505.973,149.573 507.5,149.5C 508.807,150.802 508.807,152.135 507.5,153.5C 502.544,154.494 497.544,154.827 492.5,154.5C 492.762,153.022 492.429,151.689 491.5,150.5C 490.478,150.855 489.811,151.522 489.5,152.5C 483.8,155.051 477.8,156.051 471.5,155.5C 468.242,154.079 465.742,151.746 464,148.5C 462.763,137.891 462.097,127.225 462,116.5C 460.444,115.48 459.278,114.147 458.5,112.5C 458.543,111.584 458.876,110.917 459.5,110.5 Z"/></g>
<g><path style="opacity:0.102" fill="#d2d2d2" d="M 592.5,110.5 C 594.027,110.427 595.027,111.094 595.5,112.5C 593.973,112.573 592.973,111.906 592.5,110.5 Z"/></g>
<g><path style="opacity:1" fill="#040404" d="M 663.5,110.5 C 663.333,121.838 663.5,133.172 664,144.5C 664.498,146.544 665.665,147.878 667.5,148.5C 669.966,149.634 672.633,149.801 675.5,149C 676.056,148.617 676.389,148.117 676.5,147.5C 678.679,147.16 680.512,146.16 682,144.5C 682.667,135.167 682.667,125.833 682,116.5C 681.329,115.748 680.496,115.414 679.5,115.5C 678.28,113.716 678.28,112.05 679.5,110.5C 684.167,110.5 688.833,110.5 693.5,110.5C 692.853,123.544 693.52,136.211 695.5,148.5C 697.081,150.142 697.747,152.142 697.5,154.5C 692.5,154.5 687.5,154.5 682.5,154.5C 682.762,153.022 682.429,151.689 681.5,150.5C 680.893,150.624 680.56,150.957 680.5,151.5C 678.973,151.427 677.973,152.094 677.5,153.5C 671.271,155.673 664.938,156.006 658.5,154.5C 657.167,152.5 655.5,150.833 653.5,149.5C 652.734,138.533 652.234,127.533 652,116.5C 649.09,115.55 647.923,113.55 648.5,110.5C 653.5,110.5 658.5,110.5 663.5,110.5 Z"/></g>
<g><path style="opacity:0.094" fill="#dbdbdb" d="M 280.5,108.5 C 279.92,110.749 278.587,112.415 276.5,113.5C 277.08,111.251 278.413,109.585 280.5,108.5 Z"/></g>
<g><path style="opacity:0.706" fill="#7c7c7c" d="M 459.5,110.5 C 464.305,109.513 469.305,109.179 474.5,109.5C 474.5,120.833 474.5,132.167 474.5,143.5C 473.505,132.679 473.172,121.679 473.5,110.5C 468.833,110.5 464.167,110.5 459.5,110.5 Z"/></g>
<g><path style="opacity:0.78" fill="#9c9c9c" d="M 266.5,111.5 C 266.027,112.906 265.027,113.573 263.5,113.5C 263.973,112.094 264.973,111.427 266.5,111.5 Z"/></g>
<g><path style="opacity:0.294" fill="#d2d2d2" d="M 353.5,110.5 C 355.394,111.048 357.06,112.048 358.5,113.5C 360.075,112.544 361.742,111.877 363.5,111.5C 359.749,116.984 356.416,116.651 353.5,110.5 Z"/></g>
<g><path style="opacity:0.216" fill="#e7e7e7" d="M 488.5,110.5 C 488.455,113.077 489.455,115.077 491.5,116.5C 490.417,116.461 489.417,116.127 488.5,115.5C 487.212,113.701 487.212,112.035 488.5,110.5 Z"/></g>
<g><path style="opacity:0.706" fill="#a3a3a4" d="M 118.5,108.5 C 113.536,113.965 108.37,119.298 103,124.5C 102.506,126.134 102.34,127.801 102.5,129.5C 101.733,128.828 101.066,127.995 100.5,127C 105.329,119.671 111.329,113.504 118.5,108.5 Z"/></g>
<g><path style="opacity:0.686" fill="#b4b6b4" d="M 263.5,113.5 C 263.027,114.906 262.027,115.573 260.5,115.5C 260.973,114.094 261.973,113.427 263.5,113.5 Z"/></g>
<g><path style="opacity:0.561" fill="#c4c4c4" d="M 385.5,112.5 C 387.727,113.401 388.727,115.067 388.5,117.5C 387.11,116.101 386.11,114.434 385.5,112.5 Z"/></g>
<g><path style="opacity:0.758" fill="#6e6e6e" d="M 489.5,110.5 C 494.305,109.513 499.305,109.179 504.5,109.5C 504.5,122.167 504.5,134.833 504.5,147.5C 503.505,135.345 503.171,123.011 503.5,110.5C 498.833,110.5 494.167,110.5 489.5,110.5 Z"/></g>
<g><path style="opacity:0.541" fill="#c7c7c7" d="M 595.5,112.5 C 597.727,113.401 598.727,115.067 598.5,117.5C 597.11,116.101 596.11,114.434 595.5,112.5 Z"/></g>
<g><path style="opacity:0.688" fill="#7c7c7c" d="M 637.5,110.5 C 638.451,111.919 638.784,113.585 638.5,115.5C 636.5,115.5 634.5,115.5 632.5,115.5C 632.167,115.5 631.833,115.5 631.5,115.5C 631.167,115.5 630.833,115.5 630.5,115.5C 632.607,114.532 634.941,114.198 637.5,114.5C 637.5,113.167 637.5,111.833 637.5,110.5 Z"/></g>
<g><path style="opacity:0.405" fill="#e5e5e5" d="M 667.5,148.5 C 665.665,147.878 664.498,146.544 664,144.5C 663.5,133.172 663.333,121.838 663.5,110.5C 658.695,109.513 653.695,109.179 648.5,109.5C 653.64,108.512 658.974,108.179 664.5,108.5C 664.334,118.172 664.5,127.839 665,137.5C 665.333,127.5 665.667,117.5 666,107.5C 666.184,121.241 666.684,134.908 667.5,148.5 Z"/></g>
<g><path style="opacity:1" fill="#faa5a3" d="M 252.5,115.5 C 251.341,117.25 249.674,118.25 247.5,118.5C 248.598,117.603 248.598,116.77 247.5,116C 249.134,115.506 250.801,115.34 252.5,115.5 Z"/></g>
<g><path style="opacity:0.05" fill="#efefef" d="M 421.5,116.5 C 424.304,115.362 427.304,115.195 430.5,116C 431.056,116.383 431.389,116.883 431.5,117.5C 428.236,116.676 424.902,116.342 421.5,116.5 Z"/></g>
<g><path style="opacity:0.362" fill="#dadada" d="M 525.5,99.5 C 523.702,102.831 523.036,106.498 523.5,110.5C 521.833,110.5 520.167,110.5 518.5,110.5C 518.5,111.833 518.5,113.167 518.5,114.5C 520.167,114.5 521.833,114.5 523.5,114.5C 523.334,124.839 523.5,135.172 524,145.5C 525.012,148.202 526.512,150.535 528.5,152.5C 526.983,152.489 525.816,151.823 525,150.5C 523.148,146.707 521.981,142.707 521.5,138.5C 522.465,131.224 522.799,123.891 522.5,116.5C 517.582,116.828 515.582,114.495 516.5,109.5C 518.604,109.799 520.604,109.466 522.5,108.5C 519.403,107.806 519.069,106.806 521.5,105.5C 522.466,103.604 522.799,101.604 522.5,99.5C 523.5,99.5 524.5,99.5 525.5,99.5 Z"/></g>
<g><path style="opacity:0.047" fill="#fdfdfd" d="M 601.5,115.5 C 602.647,119.646 602.814,123.98 602,128.5C 601.501,124.179 601.334,119.846 601.5,115.5 Z"/></g>
<g><path style="opacity:0.606" fill="#bdbdbd" d="M 630.5,90.5 C 622.606,94.2752 618.773,100.608 619,109.5C 617.301,110.406 615.467,110.739 613.5,110.5C 613.5,111.833 613.5,113.167 613.5,114.5C 615.467,114.261 617.301,114.594 619,115.5C 619.167,121 619.333,126.5 619.5,132C 619.495,137.876 618.829,143.376 617.5,148.5C 617.18,137.918 617.513,127.418 618.5,117C 616.75,115.681 614.75,115.181 612.5,115.5C 612.5,113.5 612.5,111.5 612.5,109.5C 614.75,109.819 616.75,109.319 618.5,108C 617.833,107.667 617.167,107.333 616.5,107C 617.939,101.13 620.939,96.1304 625.5,92C 627.025,90.9914 628.692,90.4914 630.5,90.5 Z"/></g>
<g><path style="opacity:0.17" fill="#f3f3f3" d="M 630.5,115.5 C 630.833,115.5 631.167,115.5 631.5,115.5C 631.69,124.924 631.69,134.257 631.5,143.5C 631.436,145.389 631.936,147.056 633,148.5C 633.974,146.122 634.641,146.456 635,149.5C 635.78,151.387 635.613,153.054 634.5,154.5C 635.077,151.45 633.91,149.45 631,148.5C 630.5,137.505 630.333,126.505 630.5,115.5 Z"/></g>
<g><path style="opacity:0.048" fill="#fdfdfd" d="M 632.5,115.5 C 634.5,115.5 636.5,115.5 638.5,115.5C 637.432,116.434 636.099,116.768 634.5,116.5C 634.657,117.873 634.49,119.207 634,120.5C 633.648,118.753 633.148,117.086 632.5,115.5 Z"/></g>
<g><path style="opacity:0.024" fill="#d9d9d9" d="M 122.5,115.5 C 122.5,116.833 121.833,117.5 120.5,117.5C 120.833,116.5 121.5,115.833 122.5,115.5 Z"/></g>
<g><path style="opacity:0.773" fill="#a09e9e" d="M 260.5,115.5 C 260.027,116.906 259.027,117.573 257.5,117.5C 257.973,116.094 258.973,115.427 260.5,115.5 Z"/></g>
<g><path style="opacity:0.95" fill="#202020" d="M 709.5,92.5 C 714.305,91.5128 719.305,91.1795 724.5,91.5C 724.5,110.167 724.5,128.833 724.5,147.5C 723.503,129.341 723.17,111.008 723.5,92.5C 718.833,92.5 714.167,92.5 709.5,92.5 Z"/></g>
<g><path style="opacity:0.082" fill="#e1e1e1" d="M 273.5,116.5 C 272.738,118.262 271.404,119.262 269.5,119.5C 270.262,117.738 271.596,116.738 273.5,116.5 Z"/></g>
<g><path style="opacity:0.057" fill="#d2d2d2" d="M 317.5,116.5 C 318.828,121.456 319.495,126.789 319.5,132.5C 319.167,137.833 318.833,143.167 318.5,148.5C 317.583,149.127 316.583,149.461 315.5,149.5C 315.783,148.711 316.283,148.044 317,147.5C 317.5,137.172 317.666,126.839 317.5,116.5 Z"/></g>
<g><path style="opacity:0.086" fill="#dfdfdf" d="M 344.5,116.5 C 340.681,116.414 337.015,117.081 333.5,118.5C 334.058,117.21 335.058,116.377 336.5,116C 339.367,115.199 342.034,115.366 344.5,116.5 Z"/></g>
<g><path style="opacity:0.175" fill="#f0f0f0" d="M 474.5,109.5 C 469.305,109.179 464.305,109.513 459.5,110.5C 458.876,110.917 458.543,111.584 458.5,112.5C 459.278,114.147 460.444,115.48 462,116.5C 462.097,127.225 462.763,137.891 464,148.5C 465.742,151.746 468.242,154.079 471.5,155.5C 466.263,154.765 463.096,151.765 462,146.5C 461.73,143.776 461.23,141.109 460.5,138.5C 461.63,131.55 461.797,124.55 461,117.5C 457.731,115.36 456.897,112.527 458.5,109C 463.75,108.807 468.917,108.307 474,107.5C 474.464,108.094 474.631,108.761 474.5,109.5 Z"/></g>
<g><path style="opacity:0.288" fill="#e4e4e4" d="M 679.5,115.5 C 680.496,115.414 681.329,115.748 682,116.5C 682.667,125.833 682.667,135.167 682,144.5C 680.512,146.16 678.679,147.16 676.5,147.5C 678.868,146.128 680.535,144.128 681.5,141.5C 681.522,133.595 681.355,125.595 681,117.5C 680.283,116.956 679.783,116.289 679.5,115.5 Z"/></g>
<g><path style="opacity:1" fill="#f19c9e" d="M 241.5,118.5 C 243.5,118.5 245.5,118.5 247.5,118.5C 245.786,119.738 243.786,120.405 241.5,120.5C 241.5,119.833 241.5,119.167 241.5,118.5 Z"/></g>
<g><path style="opacity:0.004" fill="#fefffe" d="M 368.5,118.5 C 369.833,119.167 369.833,119.167 368.5,118.5 Z"/></g>
<g><path style="opacity:0.059" fill="#d3d3d3" d="M 431.5,117.5 C 433.335,118.122 434.502,119.456 435,121.5C 436.901,128.477 436.901,135.477 435,142.5C 434.777,144.881 433.61,146.547 431.5,147.5C 434.123,142.664 435.456,137.664 435.5,132.5C 435.121,127.199 433.787,122.199 431.5,117.5 Z"/></g>
<g><path style="opacity:0.135" fill="#f5f5f5" d="M 333.5,118.5 C 331.914,121.703 331.247,125.203 331.5,129C 332.079,133.919 332.079,138.752 331.5,143.5C 331.363,145.841 332.03,147.841 333.5,149.5C 332.504,149.586 331.671,149.252 331,148.5C 330.333,138.833 330.333,129.167 331,119.5C 331.671,118.748 332.504,118.414 333.5,118.5 Z"/></g>
<g><path style="opacity:0.362" fill="#dfdfdf" d="M 388.5,117.5 C 389.532,127.819 390.199,138.152 390.5,148.5C 388.525,138.554 387.858,128.221 388.5,117.5 Z"/></g>
<g><path style="opacity:0.353" fill="#e0e0e0" d="M 598.5,117.5 C 599.532,127.819 600.199,138.152 600.5,148.5C 598.525,138.554 597.858,128.221 598.5,117.5 Z"/></g>
<g><path style="opacity:0.375" fill="#c6c6c6" d="M 648.5,109.5 C 653.695,109.179 658.695,109.513 663.5,110.5C 658.5,110.5 653.5,110.5 648.5,110.5C 647.923,113.55 649.09,115.55 652,116.5C 652.234,127.533 652.734,138.533 653.5,149.5C 651.934,146.118 650.934,142.451 650.5,138.5C 651.63,131.55 651.797,124.55 651,117.5C 647.522,115.605 646.689,112.938 648.5,109.5 Z"/></g>
<g><path style="opacity:0.032" fill="#e9dddf" d="M 241.5,120.5 C 242.919,121.451 244.585,121.784 246.5,121.5C 244.735,122.461 242.735,122.795 240.5,122.5C 238.833,122.5 237.167,122.5 235.5,122.5C 237.214,121.262 239.214,120.595 241.5,120.5 Z"/></g>
<g><path style="opacity:0.245" fill="#f0f0f0" d="M 572.5,118.5 C 572.217,119.289 571.717,119.956 571,120.5C 569.962,130.183 569.795,139.516 570.5,148.5C 569.173,144.217 568.507,139.551 568.5,134.5C 568.667,129.833 568.833,125.167 569,120.5C 569.816,119.177 570.983,118.511 572.5,118.5 Z"/></g>
<g><path style="opacity:0.729" fill="#837372" d="M 232.5,122.5 C 233.5,122.5 234.5,122.5 235.5,122.5C 237.167,122.5 238.833,122.5 240.5,122.5C 237.947,123.255 235.28,123.922 232.5,124.5C 232.5,123.833 232.5,123.167 232.5,122.5 Z"/></g>
<g><path style="opacity:0.027" fill="#fad6d6" d="M 99.5,118.5 C 97.9337,121.412 95.9337,124.079 93.5,126.5C 94.1272,127.417 94.4606,128.417 94.5,129.5C 93.8826,129.389 93.3826,129.056 93,128.5C 93.2027,124.088 95.3694,120.754 99.5,118.5 Z"/></g>
<g><path style="opacity:0.503" fill="#c6c6c6" d="M 344.5,116.5 C 346.074,116.937 347.241,117.937 348,119.5C 348.832,129.184 348.665,138.851 347.5,148.5C 345.022,149.722 344.022,151.722 344.5,154.5C 350.5,154.5 356.5,154.5 362.5,154.5C 362.5,154.833 362.5,155.167 362.5,155.5C 356.697,154.913 351.197,155.58 346,157.5C 344.436,155.737 343.269,153.737 342.5,151.5C 344.831,149.383 345.997,146.716 346,143.5C 346.813,148.774 347.313,148.774 347.5,143.5C 347.284,141.616 346.617,139.949 345.5,138.5C 346.724,135.869 347.391,133.035 347.5,130C 347.333,127.5 347.167,125 347,122.5C 346.667,126.167 346.333,129.833 346,133.5C 345.788,127.752 345.288,122.085 344.5,116.5 Z"/></g>
<g><path style="opacity:0.737" fill="#9f9f9f" d="M 491.5,116.5 C 492.827,120.783 493.493,125.449 493.5,130.5C 493.493,135.551 492.827,140.217 491.5,144.5C 491.5,135.167 491.5,125.833 491.5,116.5 Z"/></g>
<g><path style="opacity:0.418" fill="#d0d0d0" d="M 585.5,148.5 C 585.543,142.2 585.876,135.866 586.5,129.5C 588.569,118.899 584.569,114.899 574.5,117.5C 574.918,116.778 575.584,116.278 576.5,116C 579.167,115.333 581.833,115.333 584.5,116C 585.701,116.903 586.535,118.069 587,119.5C 587.167,124.333 587.333,129.167 587.5,134C 587.494,139.216 586.827,144.049 585.5,148.5 Z"/></g>
<g><path style="opacity:0.145" fill="#b4b3b3" d="M 112.5,125.5 C 115.434,129.773 118.767,133.773 122.5,137.5C 118.598,135.107 115.098,132.107 112,128.5C 111.26,127.251 111.427,126.251 112.5,125.5 Z"/></g>
<g><path style="opacity:0.122" fill="#d2d1d1" d="M 259.5,125.5 C 259.167,126.167 258.833,126.833 258.5,127.5C 256.207,126.699 256.54,126.032 259.5,125.5 Z"/></g>
<g><path style="opacity:0.173" fill="#dfdfdf" d="M 421.5,116.5 C 418.954,118.925 417.454,121.925 417,125.5C 416.695,130.642 416.529,135.642 416.5,140.5C 415.347,134.681 415.181,128.681 416,122.5C 416.715,119.359 418.548,117.359 421.5,116.5 Z"/></g>
<g><path style="opacity:0.196" fill="#ead8d8" d="M 224.5,129.5 C 227.307,130.657 229.974,130.657 232.5,129.5C 235.941,130.097 239.275,130.763 242.5,131.5C 241.209,131.263 240.209,131.596 239.5,132.5C 234.882,131.781 230.215,131.281 225.5,131C 224.944,130.617 224.611,130.117 224.5,129.5 Z"/></g>
<g><path style="opacity:0.334" fill="#e2e2e2" d="M 443.5,116.5 C 445.136,117.749 446.303,119.416 447,121.5C 447.999,127.186 448.832,132.853 449.5,138.5C 447.986,140.364 446.653,142.364 445.5,144.5C 448.587,134.88 447.92,125.547 443.5,116.5 Z"/></g>
<g><path style="opacity:0.925" fill="#7f7e80" d="M 244.5,131.5 C 247.01,131.054 249.01,131.72 250.5,133.5C 248.302,133.125 246.302,132.458 244.5,131.5 Z"/></g>
<g><path style="opacity:1" fill="#f39597" d="M 94.5,129.5 C 96.1667,130.5 97.5,131.833 98.5,133.5C 95.858,133.512 94.5246,132.179 94.5,129.5 Z"/></g>
<g><path style="opacity:1" fill="#f57376" d="M 241.5,118.5 C 241.5,119.167 241.5,119.833 241.5,120.5C 239.214,120.595 237.214,121.262 235.5,122.5C 234.5,122.5 233.5,122.5 232.5,122.5C 230.254,123.21 227.92,123.71 225.5,124C 224.594,125.699 224.261,127.533 224.5,129.5C 224.611,130.117 224.944,130.617 225.5,131C 230.215,131.281 234.882,131.781 239.5,132.5C 239.833,132.5 240.167,132.5 240.5,132.5C 242.102,134.074 244.102,134.741 246.5,134.5C 248.153,134.66 249.486,135.326 250.5,136.5C 250.5,136.833 250.5,137.167 250.5,137.5C 242.198,134.258 233.531,132.758 224.5,133C 224,132.5 223.5,132 223,131.5C 220.247,122.578 223.247,118.911 232,120.5C 235.141,119.678 238.307,119.011 241.5,118.5 Z"/></g>
<g><path style="opacity:0.012" fill="#dddddd" d="M 267.5,132.5 C 269.404,132.738 270.738,133.738 271.5,135.5C 269.596,135.262 268.262,134.262 267.5,132.5 Z"/></g>
<g><path style="opacity:0.455" fill="#f7d7d7" d="M 240.5,132.5 C 242.786,132.595 244.786,133.262 246.5,134.5C 244.102,134.741 242.102,134.074 240.5,132.5 Z"/></g>
<g><path style="opacity:1" fill="#59585a" d="M 133.5,133.5 C 136.179,133.525 137.512,134.858 137.5,137.5C 135.833,136.5 134.5,135.167 133.5,133.5 Z"/></g>
<g><path style="opacity:0.247" fill="#fce0e1" d="M 250.5,137.5 C 250.5,137.167 250.5,136.833 250.5,136.5C 253.198,136.845 255.198,138.178 256.5,140.5C 254.517,139.529 252.517,138.529 250.5,137.5 Z"/></g>
<g><path style="opacity:0.631" fill="#9f9ea0" d="M 258.5,136.5 C 260.027,136.427 261.027,137.094 261.5,138.5C 259.973,138.573 258.973,137.906 258.5,136.5 Z"/></g>
<g><path style="opacity:0.037" fill="#ededed" d="M 273.5,137.5 C 276.494,137.146 277.494,138.146 276.5,140.5C 275.167,139.833 274.167,138.833 273.5,137.5 Z"/></g>
<g><path style="opacity:0.443" fill="#d5d5d5" d="M 375.5,148.5 C 375.543,142.2 375.876,135.866 376.5,129.5C 378.569,118.899 374.569,114.899 364.5,117.5C 364.918,116.778 365.584,116.278 366.5,116C 369.167,115.333 371.833,115.333 374.5,116C 375.701,116.903 376.535,118.069 377,119.5C 377.167,124.333 377.333,129.167 377.5,134C 377.494,139.216 376.827,144.049 375.5,148.5 Z"/></g>
<g><path style="opacity:0.392" fill="#d0d0d0" d="M 412.5,112.5 C 410.5,114.671 408.666,117.004 407,119.5C 403.601,128.903 403.767,138.236 407.5,147.5C 405.187,144.77 403.52,141.604 402.5,138C 401.804,129.067 404.138,120.901 409.5,113.5C 410.325,112.614 411.325,112.281 412.5,112.5 Z"/></g>
<g><path style="opacity:0.8" fill="#a8a6a6" d="M 122.5,137.5 C 133.548,147.881 144.215,158.548 154.5,169.5C 143.566,160.069 133.066,150.069 123,139.5C 122.536,138.906 122.369,138.239 122.5,137.5 Z"/></g>
<g><path style="opacity:0.004" fill="#fefffe" d="M 449.5,138.5 C 450.833,139.167 450.833,139.167 449.5,138.5 Z"/></g>
<g><path style="opacity:0.659" fill="#979797" d="M 261.5,138.5 C 263.027,138.427 264.027,139.094 264.5,140.5C 262.973,140.573 261.973,139.906 261.5,138.5 Z"/></g>
<g><path style="opacity:0.248" fill="#e9e9e9" d="M 364.5,117.5 C 363.685,118.837 362.518,119.837 361,120.5C 360.833,123.333 360.667,126.167 360.5,129C 361.531,135.187 361.697,141.354 361,147.5C 363.544,148.21 364.711,149.876 364.5,152.5C 364.36,154.03 363.693,155.03 362.5,155.5C 362.5,155.167 362.5,154.833 362.5,154.5C 364.115,151.69 363.282,149.69 360,148.5C 359.333,138.833 359.333,129.167 360,119.5C 361.33,118.418 362.83,117.751 364.5,117.5 Z"/></g>
<g><path style="opacity:0.482" fill="#bdbdbd" d="M 679.5,110.5 C 684.305,109.513 689.305,109.179 694.5,109.5C 694.561,122.888 694.894,135.888 695.5,148.5C 693.52,136.211 692.853,123.544 693.5,110.5C 688.833,110.5 684.167,110.5 679.5,110.5 Z"/></g>
<g><path style="opacity:0.035" fill="#fde1e0" d="M 258.5,142.5 C 261.5,143.5 263.5,145.5 264.5,148.5C 262.167,146.833 260.167,144.833 258.5,142.5 Z"/></g>
<g><path style="opacity:0.03" fill="#cccccc" d="M 276.5,140.5 C 280.18,142.493 282.513,145.493 283.5,149.5C 280.791,146.792 278.458,143.792 276.5,140.5 Z"/></g>
<g><path style="opacity:0.588" fill="#cdcdcd" d="M 491.5,144.5 C 491.027,145.906 490.027,146.573 488.5,146.5C 488.973,145.094 489.973,144.427 491.5,144.5 Z"/></g>
<g><path style="opacity:1" fill="#ce5256" d="M 22.5,87.5 C 21.4783,94.5886 19.9783,101.589 18,108.5C 17.3333,120.167 17.3333,131.833 18,143.5C 19.3674,147.7 19.8674,152.033 19.5,156.5C 15.6823,141.191 14.5156,125.524 16,109.5C 17.2592,101.776 19.4258,94.4428 22.5,87.5 Z"/></g>
<g><path style="opacity:0.647" fill="#c1c1c1" d="M 418.5,145.5 C 419.833,146.167 420.833,147.167 421.5,148.5C 419.5,148.5 418.5,147.5 418.5,145.5 Z"/></g>
<g><path style="opacity:0.076" fill="#f0f0f0" d="M 727.5,155.5 C 727.5,155.167 727.5,154.833 727.5,154.5C 728.808,152.362 728.475,150.362 726.5,148.5C 727.496,148.414 728.329,148.748 729,149.5C 729.333,148.5 729.667,147.5 730,146.5C 730.667,149.833 730.667,153.167 730,156.5C 729.329,155.748 728.496,155.414 727.5,155.5 Z"/></g>
<g><path style="opacity:0.02" fill="#d1d3d1" d="M 271.5,147.5 C 273.262,148.262 274.262,149.596 274.5,151.5C 272.738,150.738 271.738,149.404 271.5,147.5 Z"/></g>
<g><path style="opacity:0.083" fill="#e6e6e6" d="M 431.5,147.5 C 431.389,148.117 431.056,148.617 430.5,149C 427.304,149.805 424.304,149.638 421.5,148.5C 424.902,148.658 428.236,148.324 431.5,147.5 Z"/></g>
<g><path style="opacity:0.276" fill="#c5c5c5" d="M 476.5,147.5 C 479.814,148.707 483.148,148.707 486.5,147.5C 486.389,148.117 486.056,148.617 485.5,149C 482.833,149.667 480.167,149.667 477.5,149C 476.944,148.617 476.611,148.117 476.5,147.5 Z"/></g>
<g><path style="opacity:0.929" fill="#989898" d="M 676.5,147.5 C 676.389,148.117 676.056,148.617 675.5,149C 672.633,149.801 669.966,149.634 667.5,148.5C 670.545,148.492 673.545,148.159 676.5,147.5 Z"/></g>
<g><path style="opacity:0.012" fill="#dddadb" d="M 121.5,148.5 C 122.5,148.833 123.167,149.5 123.5,150.5C 122.167,150.5 121.5,149.833 121.5,148.5 Z"/></g>
<g><path style="opacity:0.573" fill="#f9cfce" d="M 264.5,148.5 C 265.906,148.973 266.573,149.973 266.5,151.5C 265.094,151.027 264.427,150.027 264.5,148.5 Z"/></g>
<g><path style="opacity:0.184" fill="#d6d6d6" d="M 444.5,146.5 C 443.5,150.167 441.167,152.5 437.5,153.5C 439.5,150.833 441.833,148.5 444.5,146.5 Z"/></g>
<g><path style="opacity:0.094" fill="#cdcdcd" d="M 653.5,149.5 C 655.5,150.833 657.167,152.5 658.5,154.5C 655.833,153.833 654.167,152.167 653.5,149.5 Z"/></g>
<g><path style="opacity:0.059" fill="#e1e1e1" d="M 407.5,147.5 C 409.5,148.833 411.167,150.5 412.5,152.5C 409.736,152.001 408.069,150.335 407.5,147.5 Z"/></g>
<g><path style="opacity:0.051" fill="#e6e6e6" d="M 680.5,151.5 C 680.027,152.906 679.027,153.573 677.5,153.5C 677.973,152.094 678.973,151.427 680.5,151.5 Z"/></g>
<g><path style="opacity:0.875" fill="#989395" d="M 153.5,153.5 C 155.5,153.5 156.5,154.5 156.5,156.5C 155.167,155.833 154.167,154.833 153.5,153.5 Z"/></g>
<g><path style="opacity:0.18" fill="#e2e2e2" d="M 284.5,151.5 C 286.104,152.287 286.771,153.62 286.5,155.5C 285.326,154.486 284.66,153.153 284.5,151.5 Z"/></g>
<g><path style="opacity:0.345" fill="#cbcbcb" d="M 412.5,152.5 C 414.819,152.992 416.819,153.992 418.5,155.5C 415.911,155.539 413.911,154.539 412.5,152.5 Z"/></g>
<g><path style="opacity:0.012" fill="#e4e3e3" d="M 274.5,151.5 C 276.25,152.659 277.25,154.326 277.5,156.5C 275.75,155.341 274.75,153.674 274.5,151.5 Z"/></g>
<g><path style="opacity:0.614" fill="#bcbcbc" d="M 315.5,149.5 C 315.5,151.167 315.5,152.833 315.5,154.5C 321.537,154.829 327.537,154.496 333.5,153.5C 334.807,152.135 334.807,150.802 333.5,149.5C 335.745,150.828 336.078,152.661 334.5,155C 327.586,155.186 320.753,155.686 314,156.5C 313.333,153.5 313.333,150.5 314,147.5C 314.278,148.416 314.778,149.082 315.5,149.5 Z"/></g>
<g><path style="opacity:0.61" fill="#b5b5b5" d="M 375.5,148.5 C 373.919,150.142 373.253,152.142 373.5,154.5C 379.833,154.5 386.167,154.5 392.5,154.5C 392.747,152.142 392.081,150.142 390.5,148.5C 391.496,148.414 392.329,148.748 393,149.5C 393.495,151.473 393.662,153.473 393.5,155.5C 388.025,154.919 382.858,155.586 378,157.5C 376.599,155.808 374.766,155.141 372.5,155.5C 370.247,151.756 371.247,149.423 375.5,148.5 Z"/></g>
<g><path style="opacity:0.641" fill="#c1c1c1" d="M 507.5,149.5 C 510.227,152.403 509.727,155.069 506,157.5C 504.701,156.02 503.034,155.354 501,155.5C 498.491,156.093 495.991,156.259 493.5,156C 492.264,154.612 490.931,153.446 489.5,152.5C 489.811,151.522 490.478,150.855 491.5,150.5C 492.429,151.689 492.762,153.022 492.5,154.5C 497.544,154.827 502.544,154.494 507.5,153.5C 508.807,152.135 508.807,150.802 507.5,149.5 Z"/></g>
<g><path style="opacity:0.61" fill="#b7b7b7" d="M 555.5,148.5 C 553.919,150.142 553.253,152.142 553.5,154.5C 559.833,154.5 566.167,154.5 572.5,154.5C 572.747,152.142 572.081,150.142 570.5,148.5C 571.496,148.414 572.329,148.748 573,149.5C 573.495,151.473 573.662,153.473 573.5,155.5C 571.876,155.36 570.71,156.027 570,157.5C 564.464,155.575 558.631,154.908 552.5,155.5C 550.502,151.832 551.502,149.499 555.5,148.5 Z"/></g>
<g><path style="opacity:0.609" fill="#bababa" d="M 585.5,148.5 C 583.919,150.142 583.253,152.142 583.5,154.5C 589.833,154.5 596.167,154.5 602.5,154.5C 602.747,152.142 602.081,150.142 600.5,148.5C 601.268,147.737 601.768,146.737 602,145.5C 603.793,149.548 603.793,153.548 602,157.5C 595.789,155.566 589.289,154.899 582.5,155.5C 580.247,151.756 581.247,149.423 585.5,148.5 Z"/></g>
<g><path style="opacity:0.608" fill="#adadad" d="M 615.5,149.5 C 615.5,151.167 615.5,152.833 615.5,154.5C 621.833,154.5 628.167,154.5 634.5,154.5C 634.631,155.239 634.464,155.906 634,156.5C 627.59,155.522 621.09,155.189 614.5,155.5C 614.481,153.94 614.148,152.44 613.5,151C 613.836,149.97 614.503,149.47 615.5,149.5 Z"/></g>
<g><path style="opacity:0.641" fill="#b5b5b5" d="M 680.5,151.5 C 680.56,150.957 680.893,150.624 681.5,150.5C 682.429,151.689 682.762,153.022 682.5,154.5C 687.5,154.5 692.5,154.5 697.5,154.5C 697.747,152.142 697.081,150.142 695.5,148.5C 696.75,148.423 697.583,147.756 698,146.5C 699.709,150.122 699.709,153.789 698,157.5C 697.5,157 697,156.5 696.5,156C 691.511,155.501 686.511,155.334 681.5,155.5C 681.768,153.901 681.434,152.568 680.5,151.5 Z"/></g>
<g><path style="opacity:0.613" fill="#aaaaaa" d="M 711.5,148.5 C 709.919,150.142 709.253,152.142 709.5,154.5C 715.5,154.5 721.5,154.5 727.5,154.5C 727.5,154.833 727.5,155.167 727.5,155.5C 721.167,155.5 714.833,155.5 708.5,155.5C 706.502,151.832 707.502,149.499 711.5,148.5 Z"/></g>
<g><path style="opacity:0.61" fill="#b6b6b6" d="M 740.5,149.5 C 739.193,150.802 739.193,152.135 740.5,153.5C 746.5,154.833 752.5,154.833 758.5,153.5C 759.807,152.135 759.807,150.802 758.5,149.5C 760.745,150.828 761.078,152.661 759.5,155C 752.808,155.831 746.142,155.664 739.5,154.5C 737.827,152.239 738.16,150.572 740.5,149.5 Z"/></g>
<g><path style="opacity:0.057" fill="#cdcdcd" d="M 435.5,154.5 C 435.082,155.222 434.416,155.722 433.5,156C 428.316,156.816 423.316,156.65 418.5,155.5C 424.203,155.625 429.87,155.292 435.5,154.5 Z"/></g>
<g><path style="opacity:0.076" fill="#e4e4e4" d="M 489.5,152.5 C 488.025,154.41 486.025,155.576 483.5,156C 480.242,156.212 477.076,156.712 474,157.5C 473.005,156.934 472.172,156.267 471.5,155.5C 477.8,156.051 483.8,155.051 489.5,152.5 Z"/></g>
<g><path style="opacity:0.486" fill="#d7d7d7" d="M 677.5,153.5 C 674.015,155.62 670.182,156.954 666,157.5C 663.244,156.93 660.744,155.93 658.5,154.5C 664.938,156.006 671.271,155.673 677.5,153.5 Z"/></g>
<g><path style="opacity:0.306" fill="#fde2e2" d="M 266.5,151.5 C 268.822,152.802 270.155,154.802 270.5,157.5C 268.674,155.853 267.34,153.853 266.5,151.5 Z"/></g>
<g><path style="opacity:0.004" fill="#fefffe" d="M 305.5,157.5 C 306.833,158.167 306.833,158.167 305.5,157.5 Z"/></g>
<g><path style="opacity:0.824" fill="#9f9f9f" d="M 158.5,158.5 C 161.5,159.5 163.5,161.5 164.5,164.5C 162.167,162.833 160.167,160.833 158.5,158.5 Z"/></g>
<g><path style="opacity:1" fill="#e8565a" d="M 158.5,146.5 C 165.694,148.536 170.86,152.869 174,159.5C 177.016,158.711 179.849,157.878 182.5,157C 181.73,159.567 180.73,162.067 179.5,164.5C 179.833,165.167 180.167,165.833 180.5,166.5C 185.338,166.991 187.338,169.658 186.5,174.5C 176.833,165.5 167.5,156.167 158.5,146.5 Z"/></g>
<g><path style="opacity:0.235" fill="#dcdcdc" d="M 286.5,155.5 C 287.931,156.78 288.598,158.447 288.5,160.5C 287.069,159.22 286.402,157.553 286.5,155.5 Z"/></g>
<g><path style="opacity:0.149" fill="#feeff0" d="M 270.5,157.5 C 271.931,158.78 272.598,160.447 272.5,162.5C 271.069,161.22 270.402,159.553 270.5,157.5 Z"/></g>
<g><path style="opacity:0.808" fill="#a0a0a2" d="M 164.5,164.5 C 167.5,165.5 169.5,167.5 170.5,170.5C 168.167,168.833 166.167,166.833 164.5,164.5 Z"/></g>
<g><path style="opacity:0.118" fill="#d7d6d6" d="M 8.5,105.5 C 5.08702,135.508 10.4203,163.842 24.5,190.5C 12.168,170.974 6.16799,149.474 6.5,126C 6.33904,118.936 7.00571,112.103 8.5,105.5 Z"/></g>
<g><path style="opacity:0.004" fill="#fefffe" d="M 674.5,165.5 C 675.833,166.167 675.833,166.167 674.5,165.5 Z"/></g>
<g><path style="opacity:0.847" fill="#9e9d9d" d="M 154.5,169.5 C 157.5,171.833 160.167,174.5 162.5,177.5C 158.833,175.833 156.167,173.167 154.5,169.5 Z"/></g>
<g><path style="opacity:0.792" fill="#a9a9aa" d="M 170.5,170.5 C 177.146,175.146 182.812,180.812 187.5,187.5C 181.912,182.579 176.245,176.913 170.5,170.5 Z"/></g>
<g><path style="opacity:1" fill="#c35054" d="M 186.5,174.5 C 190.517,175.85 193.183,178.517 194.5,182.5C 191.5,180.167 188.833,177.5 186.5,174.5 Z"/></g>
<g><path style="opacity:0.096" fill="#d4d4d4" d="M 277.5,156.5 C 283.509,166.284 284.842,176.617 281.5,187.5C 282.272,176.551 280.939,166.218 277.5,156.5 Z"/></g>
<g><path style="opacity:0.308" fill="#fde3e4" d="M 272.5,162.5 C 274.866,167.102 275.866,172.102 275.5,177.5C 275.841,184.476 274.174,190.809 270.5,196.5C 272.657,190.887 273.99,185.053 274.5,179C 273.785,173.497 273.118,167.997 272.5,162.5 Z"/></g>
<g><path style="opacity:0.004" fill="#fefffe" d="M 575.5,177.5 C 576.833,178.167 576.833,178.167 575.5,177.5 Z"/></g>
<g><path style="opacity:0.004" fill="#fefffe" d="M 650.5,177.5 C 651.833,178.167 651.833,178.167 650.5,177.5 Z"/></g>
<g><path style="opacity:0.09" fill="#f0e8e9" d="M 149.5,176.5 C 152.167,178.5 154.5,180.833 156.5,183.5C 154.692,184.918 154.025,186.918 154.5,189.5C 153.5,188.833 152.5,188.167 151.5,187.5C 151.5,187.167 151.5,186.833 151.5,186.5C 152.649,186.209 153.316,185.376 153.5,184C 153.333,183.167 153.167,182.333 153,181.5C 151.198,180.211 150.031,178.544 149.5,176.5 Z"/></g>
<g><path style="opacity:1" fill="#f66d70" d="M 110.5,145.5 C 124.5,158.833 138.167,172.5 151.5,186.5C 151.5,186.833 151.5,187.167 151.5,187.5C 149.128,186.086 146.961,186.42 145,188.5C 144.919,185.649 144.419,182.649 143.5,179.5C 141.033,178.964 138.7,178.464 136.5,178C 136.761,175.797 136.261,173.63 135,171.5C 133.601,170.773 132.101,170.273 130.5,170C 129.617,165.618 126.951,163.118 122.5,162.5C 118.183,163.484 117.517,162.15 120.5,158.5C 119.188,155.757 117.021,154.09 114,153.5C 113.018,150.706 111.851,148.039 110.5,145.5 Z"/></g>
<g><path style="opacity:0.004" fill="#fefffe" d="M 749.5,183.5 C 750.833,184.167 750.833,184.167 749.5,183.5 Z"/></g>
<g><path style="opacity:0.004" fill="#e6e4e5" d="M 156.5,183.5 C 162.5,188.833 168.167,194.5 173.5,200.5C 166.833,195.833 161.167,190.167 156.5,183.5 Z"/></g>
<g><path style="opacity:0.004" fill="#fefffe" d="M 467.5,185.5 C 468.833,186.167 468.833,186.167 467.5,185.5 Z"/></g>
<g><path style="opacity:0.78" fill="#b1b1b2" d="M 187.5,187.5 C 193.479,191.479 198.479,196.479 202.5,202.5C 198.032,198.703 193.032,193.703 187.5,187.5 Z"/></g>
<g><path style="opacity:1" fill="#d9555a" d="M 194.5,182.5 C 202.211,184.211 206.877,188.877 208.5,196.5C 203.5,192.167 198.833,187.5 194.5,182.5 Z"/></g>
<g><path style="opacity:0.173" fill="#e2e2e2" d="M 281.5,187.5 C 281.741,189.898 281.074,191.898 279.5,193.5C 279.595,191.214 280.262,189.214 281.5,187.5 Z"/></g>
<g><path style="opacity:0.004" fill="#fefffe" d="M 536.5,190.5 C 537.833,191.167 537.833,191.167 536.5,190.5 Z"/></g>
<g><path style="opacity:0.004" fill="#fefffe" d="M 449.5,191.5 C 450.833,192.167 450.833,192.167 449.5,191.5 Z"/></g>
<g><path style="opacity:0.18" fill="#dadbda" d="M 24.5,190.5 C 26.2503,191.659 27.2503,193.326 27.5,195.5C 25.5923,194.514 24.5923,192.848 24.5,190.5 Z"/></g>
<g><path style="opacity:0.004" fill="#fefffe" d="M 611.5,194.5 C 612.833,195.167 612.833,195.167 611.5,194.5 Z"/></g>
<g><path style="opacity:0.088" fill="#f5f5f5" d="M 186.5,201.5 C 185.5,201.167 184.833,200.5 184.5,199.5C 185.29,198.391 185.79,197.058 186,195.5C 186.495,197.473 186.662,199.473 186.5,201.5 Z"/></g>
<g><path style="opacity:0.047" fill="#dfe1e0" d="M 27.5,195.5 C 28.9063,195.973 29.573,196.973 29.5,198.5C 28.0937,198.027 27.427,197.027 27.5,195.5 Z"/></g>
<g><path style="opacity:0.439" fill="#cacac9" d="M 279.5,193.5 C 279.771,195.38 279.104,196.713 277.5,197.5C 277.66,195.847 278.326,194.514 279.5,193.5 Z"/></g>
<g><path style="opacity:0.259" fill="#fde3e2" d="M 270.5,196.5 C 270.573,198.027 269.906,199.027 268.5,199.5C 268.427,197.973 269.094,196.973 270.5,196.5 Z"/></g>
<g><path style="opacity:0.345" fill="#d2d2d2" d="M 288.5,160.5 C 293.122,174.708 292.289,188.708 286,202.5C 284,205.666 281.5,208.332 278.5,210.5C 290.137,195.647 293.471,178.98 288.5,160.5 Z"/></g>
<g><path style="opacity:0.05" fill="#f6eeef" d="M 173.5,200.5 C 174.833,201.167 175.833,202.167 176.5,203.5C 174.409,203.682 172.409,203.348 170.5,202.5C 169.702,202.957 169.369,203.624 169.5,204.5C 168.167,203.833 167.167,202.833 166.5,201.5C 169.059,201.802 171.393,201.468 173.5,200.5 Z"/></g>
<g><path style="opacity:0.036" fill="#f8f8f8" d="M 186.5,201.5 C 188.527,201.338 190.527,201.505 192.5,202C 191.429,202.852 190.429,203.685 189.5,204.5C 188.167,203.833 187.167,202.833 186.5,201.5 Z"/></g>
<g><path style="opacity:1" fill="#d6555a" d="M 208.5,196.5 C 211.335,198.082 214.335,199.415 217.5,200.5C 219.905,202.642 221.238,205.309 221.5,208.5C 216.56,205.23 212.227,201.23 208.5,196.5 Z"/></g>
<g><path style="opacity:1" fill="#f99e9b" d="M 268.5,199.5 C 267.927,202.407 266.261,204.407 263.5,205.5C 263.215,203.712 263.548,202.045 264.5,200.5C 265.985,201.433 267.318,201.1 268.5,199.5 Z"/></g>
<g><path style="opacity:0.388" fill="#d9d9d8" d="M 29.5,198.5 C 32.2085,201.208 34.5419,204.208 36.5,207.5C 33.027,205.363 30.6936,202.363 29.5,198.5 Z"/></g>
<g><path style="opacity:0.749" fill="#b2b2b3" d="M 202.5,202.5 C 207.44,205.77 211.773,209.77 215.5,214.5C 210.56,211.23 206.227,207.23 202.5,202.5 Z"/></g>
<g><path style="opacity:0.004" fill="#e7e8e8" d="M 176.5,203.5 C 177.5,203.833 178.167,204.5 178.5,205.5C 177.167,205.5 176.5,204.833 176.5,203.5 Z"/></g>
<g><path style="opacity:0.541" fill="#bbbfbd" d="M 277.5,197.5 C 275.558,202.441 272.225,206.108 267.5,208.5C 270.862,204.808 274.195,201.141 277.5,197.5 Z"/></g>
<g><path style="opacity:0.004" fill="#fefffe" d="M 527.5,204.5 C 528.833,205.167 528.833,205.167 527.5,204.5 Z"/></g>
<g><path style="opacity:1" fill="#fba09f" d="M 263.5,205.5 C 262.833,206.833 261.833,207.833 260.5,208.5C 260.167,208.5 259.833,208.5 259.5,208.5C 259.5,207.5 259.5,206.5 259.5,205.5C 260.833,205.5 262.167,205.5 263.5,205.5 Z"/></g>
<g><path style="opacity:0.004" fill="#fefffe" d="M 728.5,206.5 C 729.833,207.167 729.833,207.167 728.5,206.5 Z"/></g>
<g><path style="opacity:0.008" fill="#d8d7d7" d="M 36.5,207.5 C 41.8333,212.167 46.8333,217.167 51.5,222.5C 45.5,218.5 40.5,213.5 36.5,207.5 Z"/></g>
<g><path style="opacity:0.004" fill="#ffe9eb" d="M 173.5,208.5 C 175.5,208.5 176.5,209.5 176.5,211.5C 175.167,210.833 174.167,209.833 173.5,208.5 Z"/></g>
<g><path style="opacity:0.004" fill="#e8e8e8" d="M 180.5,207.5 C 182.167,208.5 183.5,209.833 184.5,211.5C 182.167,211.167 180.833,209.833 180.5,207.5 Z"/></g>
<g><path style="opacity:0.271" fill="#fee5e6" d="M 259.5,208.5 C 259.833,208.5 260.167,208.5 260.5,208.5C 258.664,210.588 256.331,211.921 253.5,212.5C 253.5,212.167 253.5,211.833 253.5,211.5C 255.5,210.5 257.5,209.5 259.5,208.5 Z"/></g>
<g><path style="opacity:0.004" fill="#fefffe" d="M 491.5,212.5 C 492.833,213.167 492.833,213.167 491.5,212.5 Z"/></g>
<g><path style="opacity:1" fill="#d95157" d="M 47.5,207.5 C 50.2682,209.087 52.9348,210.92 55.5,213C 57.2694,214.019 58.9361,214.186 60.5,213.5C 62.7894,218.111 65.7894,222.111 69.5,225.5C 61.2897,220.628 53.9563,214.628 47.5,207.5 Z"/></g>
<g><path style="opacity:1" fill="#e95c60" d="M 221.5,208.5 C 224.09,208.396 226.423,209.063 228.5,210.5C 230.695,208.083 233.028,207.916 235.5,210C 234.167,211 234.167,212 235.5,213C 241.616,213.732 247.616,213.232 253.5,211.5C 253.5,211.833 253.5,212.167 253.5,212.5C 249.501,213.5 245.501,214.5 241.5,215.5C 238.482,215.296 235.482,214.963 232.5,214.5C 229.618,213.189 226.618,212.022 223.5,211C 222.619,210.292 221.953,209.458 221.5,208.5 Z"/></g>
<g><path style="opacity:0.1" fill="#d8cfcf" d="M 267.5,208.5 C 260.1,214.724 251.433,217.391 241.5,216.5C 241.5,216.167 241.5,215.833 241.5,215.5C 245.501,214.5 249.501,213.5 253.5,212.5C 253.082,213.222 252.416,213.722 251.5,214C 252,214.167 252.5,214.333 253,214.5C 257.912,212.625 262.745,210.625 267.5,208.5 Z"/></g>
<g><path style="opacity:0.071" fill="#e5e4e5" d="M 276.5,212.5 C 275.738,214.262 274.404,215.262 272.5,215.5C 273.262,213.738 274.596,212.738 276.5,212.5 Z"/></g>
<g><path style="opacity:0.663" fill="#b5b6b5" d="M 215.5,214.5 C 217.404,214.738 218.738,215.738 219.5,217.5C 218.883,217.611 218.383,217.944 218,218.5C 217.338,217.016 216.504,215.683 215.5,214.5 Z"/></g>
<g><path style="opacity:0.882" fill="#6f2d31" d="M 232.5,214.5 C 235.482,214.963 238.482,215.296 241.5,215.5C 241.5,215.833 241.5,216.167 241.5,216.5C 238.171,216.785 235.171,216.118 232.5,214.5 Z"/></g>
<g><path style="opacity:0.075" fill="#e2e2e2" d="M 272.5,215.5 C 272.027,216.906 271.027,217.573 269.5,217.5C 269.973,216.094 270.973,215.427 272.5,215.5 Z"/></g>
<g><path style="opacity:0.18" fill="#faeaea" d="M 176.5,211.5 C 179.731,213.22 182.564,215.553 185,218.5C 185.556,216.115 185.39,213.782 184.5,211.5C 186.167,212.5 187.5,213.833 188.5,215.5C 187.351,215.791 186.684,216.624 186.5,218C 187.047,220.217 188.047,222.217 189.5,224C 189.43,224.765 189.097,225.265 188.5,225.5C 184.897,220.558 180.897,215.892 176.5,211.5 Z"/></g>
<g><path style="opacity:0.941" fill="#868786" d="M 225.5,220.5 C 227.698,220.12 229.365,220.787 230.5,222.5C 228.447,222.598 226.78,221.931 225.5,220.5 Z"/></g>
<g><path style="opacity:0.055" fill="#cfcfcf" d="M 269.5,217.5 C 268.251,219.136 266.584,220.303 264.5,221C 253.471,225.941 242.138,226.441 230.5,222.5C 244.083,224.998 257.083,223.332 269.5,217.5 Z"/></g>
<g><path style="opacity:0.498" fill="#c8c8c9" d="M 196.5,223.5 C 197.525,223.897 197.692,224.563 197,225.5C 195.67,226.582 194.17,227.249 192.5,227.5C 193.833,226.167 195.167,224.833 196.5,223.5 Z"/></g>
<g><path style="opacity:0.392" fill="#c8c8c7" d="M 51.5,222.5 C 53.7488,223.08 55.4154,224.413 56.5,226.5C 54.2512,225.92 52.5846,224.587 51.5,222.5 Z"/></g>
<g><path style="opacity:1" fill="#d34e53" d="M 69.5,225.5 C 74.3906,224.52 77.7239,226.186 79.5,230.5C 75.6284,229.898 72.2951,228.231 69.5,225.5 Z"/></g>
<g><path style="opacity:0.522" fill="#c0c0c0" d="M 205.5,220.5 C 208.332,222.407 209.166,225.073 208,228.5C 207.329,229.252 206.496,229.586 205.5,229.5C 206.582,228.406 207.248,227.073 207.5,225.5C 206.813,223.823 206.146,222.156 205.5,220.5 Z"/></g>
<g><path style="opacity:0.004" fill="#fefffe" d="M 362.5,227.5 C 363.833,228.167 363.833,228.167 362.5,227.5 Z"/></g>
<g><path style="opacity:0.045" fill="#d0d3d1" d="M 56.5,226.5 C 58.4044,226.738 59.7377,227.738 60.5,229.5C 58.3812,229.532 57.0478,228.532 56.5,226.5 Z"/></g>
<g><path style="opacity:0.42" fill="#d0d4d3" d="M 60.5,229.5 C 62.0269,229.427 63.0269,230.094 63.5,231.5C 61.9731,231.573 60.9731,230.906 60.5,229.5 Z"/></g>
<g><path style="opacity:0.024" fill="#ededed" d="M 205.5,229.5 C 205.027,230.906 204.027,231.573 202.5,231.5C 202.973,230.094 203.973,229.427 205.5,229.5 Z"/></g>
<g><path style="opacity:0.004" fill="#fefffe" d="M 392.5,230.5 C 393.833,231.167 393.833,231.167 392.5,230.5 Z"/></g>
<g><path style="opacity:0.07" fill="#eee3e4" d="M 188.5,225.5 C 187.859,226.482 187.193,227.482 186.5,228.5C 186.833,228.833 187.167,229.167 187.5,229.5C 189.075,228.544 190.742,227.877 192.5,227.5C 186.862,231.818 180.529,234.818 173.5,236.5C 171.32,235.206 169.32,235.539 167.5,237.5C 163.5,237.833 163.5,238.167 167.5,238.5C 165.162,240.04 162.495,240.706 159.5,240.5C 159.5,239.833 159.167,239.5 158.5,239.5C 158.5,239.167 158.5,238.833 158.5,238.5C 168.997,235.25 178.997,230.917 188.5,225.5 Z M 184.5,228.5 C 182.058,230.226 179.391,231.726 176.5,233C 179.419,233.552 182.086,232.885 184.5,231C 185.774,230.023 185.774,229.189 184.5,228.5 Z"/></g>
<g><path style="opacity:0.004" fill="#fefffe" d="M 683.5,232.5 C 684.833,233.167 684.833,233.167 683.5,232.5 Z"/></g>
<g><path style="opacity:0.2" fill="#dcdcdc" d="M 202.5,231.5 C 199.839,234.502 196.505,236.502 192.5,237.5C 195.494,235 198.827,233 202.5,231.5 Z"/></g>
<g><path style="opacity:0.302" fill="#d7d7d7" d="M 63.5,231.5 C 66.5113,232.669 69.178,234.336 71.5,236.5C 68.1511,235.831 65.4844,234.164 63.5,231.5 Z"/></g>
<g><path style="opacity:0.004" fill="#fefffe" d="M 608.5,234.5 C 609.833,235.167 609.833,235.167 608.5,234.5 Z"/></g>
<g><path style="opacity:0.188" fill="#e0e0e0" d="M 71.5,236.5 C 73.153,236.66 74.4863,237.326 75.5,238.5C 73.6203,238.771 72.287,238.104 71.5,236.5 Z"/></g>
<g><path style="opacity:1" fill="#7c272a" d="M 93.5,237.5 C 98.1646,238.057 102.498,239.39 106.5,241.5C 101.835,240.943 97.5021,239.61 93.5,237.5 Z"/></g>
<g><path style="opacity:0.004" fill="#fefffe" d="M 665.5,239.5 C 666.833,240.167 666.833,240.167 665.5,239.5 Z"/></g>
<g><path style="opacity:0.129" fill="#efe2e1" d="M 158.5,239.5 C 159.167,239.5 159.5,239.833 159.5,240.5C 153.511,242.873 147.178,243.873 140.5,243.5C 145.09,241.881 151.09,240.548 158.5,239.5 Z"/></g>
<g><path style="opacity:0.337" fill="#d3d3d3" d="M 79.5,240.5 C 82.2406,240.707 84.5739,241.707 86.5,243.5C 83.7594,243.293 81.4261,242.293 79.5,240.5 Z"/></g>
<g><path style="opacity:1" fill="#d95c62" d="M 83.5,233.5 C 93.6389,235.236 103.639,237.569 113.5,240.5C 123.817,241.666 134.151,241.832 144.5,241C 149.041,239.565 153.708,238.732 158.5,238.5C 158.5,238.833 158.5,239.167 158.5,239.5C 151.09,240.548 145.09,241.881 140.5,243.5C 129.127,245.133 117.794,244.467 106.5,241.5C 102.498,239.39 98.1646,238.057 93.5,237.5C 90.016,236.343 86.6827,235.01 83.5,233.5 Z"/></g>
<g><path style="opacity:0.298" fill="#e0dfdf" d="M 86.5,243.5 C 88.5529,243.402 90.2196,244.069 91.5,245.5C 89.6011,246.045 87.9345,245.378 86.5,243.5 Z"/></g>
<g><path style="opacity:0.933" fill="#afb2af" d="M 91.5,245.5 C 98.0817,246.589 104.415,248.256 110.5,250.5C 103.7,250.213 97.3668,248.546 91.5,245.5 Z"/></g>
<g><path style="opacity:0.169" fill="#d8d8d8" d="M 186.5,240.5 C 177.327,245.507 166.994,249.007 155.5,251C 148.516,251.965 141.516,252.798 134.5,253.5C 130.517,252.866 126.351,252.866 122,253.5C 120.052,252.891 118.218,252.224 116.5,251.5C 140.784,253.508 164.118,249.841 186.5,240.5 Z"/></g>
<g><path style="opacity:0.004" fill="#fefffe" d="M 686.5,254.5 C 687.833,255.167 687.833,255.167 686.5,254.5 Z"/></g>
</svg>
